G04 #@! TF.GenerationSoftware,KiCad,Pcbnew,5.1.4*
G04 #@! TF.CreationDate,2019-10-17T14:18:33+11:00*
G04 #@! TF.ProjectId,fabulouspide,66616275-6c6f-4757-9370-6964652e6b69,rev?*
G04 #@! TF.SameCoordinates,Original*
G04 #@! TF.FileFunction,Legend,Bot*
G04 #@! TF.FilePolarity,Positive*
%FSLAX46Y46*%
G04 Gerber Fmt 4.6, Leading zero omitted, Abs format (unit mm)*
G04 Created by KiCad (PCBNEW 5.1.4) date 2019-10-17 14:18:33*
%MOMM*%
%LPD*%
G04 APERTURE LIST*
%ADD10C,0.100000*%
%ADD11C,0.150000*%
G04 APERTURE END LIST*
D10*
G36*
X99200000Y-71300000D02*
G01*
X99200000Y-71000000D01*
X99500000Y-71000000D01*
X99200000Y-71300000D01*
G37*
X99200000Y-71300000D02*
X99200000Y-71000000D01*
X99500000Y-71000000D01*
X99200000Y-71300000D01*
G36*
X99600000Y-71400000D02*
G01*
X99300000Y-71400000D01*
X99600000Y-71100000D01*
X99600000Y-71400000D01*
G37*
X99600000Y-71400000D02*
X99300000Y-71400000D01*
X99600000Y-71100000D01*
X99600000Y-71400000D01*
G36*
X94300000Y-71600000D02*
G01*
X94300000Y-71300000D01*
X94600000Y-71300000D01*
X94300000Y-71600000D01*
G37*
X94300000Y-71600000D02*
X94300000Y-71300000D01*
X94600000Y-71300000D01*
X94300000Y-71600000D01*
G36*
X97000000Y-71400000D02*
G01*
X96700000Y-71400000D01*
X97000000Y-71100000D01*
X97000000Y-71400000D01*
G37*
X97000000Y-71400000D02*
X96700000Y-71400000D01*
X97000000Y-71100000D01*
X97000000Y-71400000D01*
G36*
X104300000Y-71600000D02*
G01*
X104300000Y-71300000D01*
X104600000Y-71300000D01*
X104300000Y-71600000D01*
G37*
X104300000Y-71600000D02*
X104300000Y-71300000D01*
X104600000Y-71300000D01*
X104300000Y-71600000D01*
G36*
X101900000Y-71600000D02*
G01*
X101900000Y-71300000D01*
X102200000Y-71300000D01*
X101900000Y-71600000D01*
G37*
X101900000Y-71600000D02*
X101900000Y-71300000D01*
X102200000Y-71300000D01*
X101900000Y-71600000D01*
G36*
X91900000Y-70600000D02*
G01*
X91600000Y-70300000D01*
X91900000Y-70300000D01*
X91900000Y-70600000D01*
G37*
X91900000Y-70600000D02*
X91600000Y-70300000D01*
X91900000Y-70300000D01*
X91900000Y-70600000D01*
G36*
X94500000Y-70600000D02*
G01*
X94200000Y-70300000D01*
X94500000Y-70300000D01*
X94500000Y-70600000D01*
G37*
X94500000Y-70600000D02*
X94200000Y-70300000D01*
X94500000Y-70300000D01*
X94500000Y-70600000D01*
G36*
X97000000Y-70600000D02*
G01*
X96700000Y-70300000D01*
X97000000Y-70300000D01*
X97000000Y-70600000D01*
G37*
X97000000Y-70600000D02*
X96700000Y-70300000D01*
X97000000Y-70300000D01*
X97000000Y-70600000D01*
G36*
X99700000Y-70600000D02*
G01*
X99400000Y-70600000D01*
X99400000Y-70300000D01*
X99700000Y-70600000D01*
G37*
X99700000Y-70600000D02*
X99400000Y-70600000D01*
X99400000Y-70300000D01*
X99700000Y-70600000D01*
G36*
X102200000Y-70600000D02*
G01*
X101900000Y-70600000D01*
X101900000Y-70300000D01*
X102200000Y-70600000D01*
G37*
X102200000Y-70600000D02*
X101900000Y-70600000D01*
X101900000Y-70300000D01*
X102200000Y-70600000D01*
G36*
X104600000Y-70800000D02*
G01*
X104300000Y-70800000D01*
X104300000Y-70500000D01*
X104600000Y-70800000D01*
G37*
X104600000Y-70800000D02*
X104300000Y-70800000D01*
X104300000Y-70500000D01*
X104600000Y-70800000D01*
D11*
X106384320Y-73360800D02*
X106450986Y-73327466D01*
X106550986Y-73327466D01*
X106650986Y-73360800D01*
X106717653Y-73427466D01*
X106750986Y-73494133D01*
X106784320Y-73627466D01*
X106784320Y-73727466D01*
X106750986Y-73860800D01*
X106717653Y-73927466D01*
X106650986Y-73994133D01*
X106550986Y-74027466D01*
X106484320Y-74027466D01*
X106384320Y-73994133D01*
X106350986Y-73960800D01*
X106350986Y-73727466D01*
X106484320Y-73727466D01*
X106050986Y-74027466D02*
X106050986Y-73327466D01*
X105784320Y-73327466D01*
X105717653Y-73360800D01*
X105684320Y-73394133D01*
X105650986Y-73460800D01*
X105650986Y-73560800D01*
X105684320Y-73627466D01*
X105717653Y-73660800D01*
X105784320Y-73694133D01*
X106050986Y-73694133D01*
X105350986Y-74027466D02*
X105350986Y-73327466D01*
X104884320Y-73327466D02*
X104750986Y-73327466D01*
X104684320Y-73360800D01*
X104617653Y-73427466D01*
X104584320Y-73560800D01*
X104584320Y-73794133D01*
X104617653Y-73927466D01*
X104684320Y-73994133D01*
X104750986Y-74027466D01*
X104884320Y-74027466D01*
X104950986Y-73994133D01*
X105017653Y-73927466D01*
X105050986Y-73794133D01*
X105050986Y-73560800D01*
X105017653Y-73427466D01*
X104950986Y-73360800D01*
X104884320Y-73327466D01*
X103729046Y-74027466D02*
X103729046Y-73327466D01*
X103462380Y-73327466D01*
X103395713Y-73360800D01*
X103362380Y-73394133D01*
X103329046Y-73460800D01*
X103329046Y-73560800D01*
X103362380Y-73627466D01*
X103395713Y-73660800D01*
X103462380Y-73694133D01*
X103729046Y-73694133D01*
X103029046Y-74027466D02*
X103029046Y-73327466D01*
X102862380Y-73327466D01*
X102762380Y-73360800D01*
X102695713Y-73427466D01*
X102662380Y-73494133D01*
X102629046Y-73627466D01*
X102629046Y-73727466D01*
X102662380Y-73860800D01*
X102695713Y-73927466D01*
X102762380Y-73994133D01*
X102862380Y-74027466D01*
X103029046Y-74027466D01*
X102395713Y-73327466D02*
X101962380Y-73327466D01*
X102195713Y-73594133D01*
X102095713Y-73594133D01*
X102029046Y-73627466D01*
X101995713Y-73660800D01*
X101962380Y-73727466D01*
X101962380Y-73894133D01*
X101995713Y-73960800D01*
X102029046Y-73994133D01*
X102095713Y-74027466D01*
X102295713Y-74027466D01*
X102362380Y-73994133D01*
X102395713Y-73960800D01*
X101177460Y-74009373D02*
X101077460Y-74042706D01*
X100910793Y-74042706D01*
X100844126Y-74009373D01*
X100810793Y-73976040D01*
X100777460Y-73909373D01*
X100777460Y-73842706D01*
X100810793Y-73776040D01*
X100844126Y-73742706D01*
X100910793Y-73709373D01*
X101044126Y-73676040D01*
X101110793Y-73642706D01*
X101144126Y-73609373D01*
X101177460Y-73542706D01*
X101177460Y-73476040D01*
X101144126Y-73409373D01*
X101110793Y-73376040D01*
X101044126Y-73342706D01*
X100877460Y-73342706D01*
X100777460Y-73376040D01*
X100477460Y-74042706D02*
X100477460Y-73342706D01*
X100310793Y-73342706D01*
X100210793Y-73376040D01*
X100144126Y-73442706D01*
X100110793Y-73509373D01*
X100077460Y-73642706D01*
X100077460Y-73742706D01*
X100110793Y-73876040D01*
X100144126Y-73942706D01*
X100210793Y-74009373D01*
X100310793Y-74042706D01*
X100477460Y-74042706D01*
X99810793Y-73842706D02*
X99477460Y-73842706D01*
X99877460Y-74042706D02*
X99644126Y-73342706D01*
X99410793Y-74042706D01*
X98709693Y-74009373D02*
X98609693Y-74042706D01*
X98443026Y-74042706D01*
X98376360Y-74009373D01*
X98343026Y-73976040D01*
X98309693Y-73909373D01*
X98309693Y-73842706D01*
X98343026Y-73776040D01*
X98376360Y-73742706D01*
X98443026Y-73709373D01*
X98576360Y-73676040D01*
X98643026Y-73642706D01*
X98676360Y-73609373D01*
X98709693Y-73542706D01*
X98709693Y-73476040D01*
X98676360Y-73409373D01*
X98643026Y-73376040D01*
X98576360Y-73342706D01*
X98409693Y-73342706D01*
X98309693Y-73376040D01*
X97609693Y-73976040D02*
X97643026Y-74009373D01*
X97743026Y-74042706D01*
X97809693Y-74042706D01*
X97909693Y-74009373D01*
X97976360Y-73942706D01*
X98009693Y-73876040D01*
X98043026Y-73742706D01*
X98043026Y-73642706D01*
X98009693Y-73509373D01*
X97976360Y-73442706D01*
X97909693Y-73376040D01*
X97809693Y-73342706D01*
X97743026Y-73342706D01*
X97643026Y-73376040D01*
X97609693Y-73409373D01*
X96976360Y-74042706D02*
X97309693Y-74042706D01*
X97309693Y-73342706D01*
X96256366Y-74055406D02*
X96256366Y-73355406D01*
X95989700Y-73355406D01*
X95923033Y-73388740D01*
X95889700Y-73422073D01*
X95856366Y-73488740D01*
X95856366Y-73588740D01*
X95889700Y-73655406D01*
X95923033Y-73688740D01*
X95989700Y-73722073D01*
X96256366Y-73722073D01*
X95556366Y-74055406D02*
X95556366Y-73355406D01*
X95389700Y-73355406D01*
X95289700Y-73388740D01*
X95223033Y-73455406D01*
X95189700Y-73522073D01*
X95156366Y-73655406D01*
X95156366Y-73755406D01*
X95189700Y-73888740D01*
X95223033Y-73955406D01*
X95289700Y-74022073D01*
X95389700Y-74055406D01*
X95556366Y-74055406D01*
X94889700Y-73422073D02*
X94856366Y-73388740D01*
X94789700Y-73355406D01*
X94623033Y-73355406D01*
X94556366Y-73388740D01*
X94523033Y-73422073D01*
X94489700Y-73488740D01*
X94489700Y-73555406D01*
X94523033Y-73655406D01*
X94923033Y-74055406D01*
X94489700Y-74055406D01*
X93291593Y-73368420D02*
X93358260Y-73335086D01*
X93458260Y-73335086D01*
X93558260Y-73368420D01*
X93624926Y-73435086D01*
X93658260Y-73501753D01*
X93691593Y-73635086D01*
X93691593Y-73735086D01*
X93658260Y-73868420D01*
X93624926Y-73935086D01*
X93558260Y-74001753D01*
X93458260Y-74035086D01*
X93391593Y-74035086D01*
X93291593Y-74001753D01*
X93258260Y-73968420D01*
X93258260Y-73735086D01*
X93391593Y-73735086D01*
X92958260Y-74035086D02*
X92958260Y-73335086D01*
X92558260Y-74035086D01*
X92558260Y-73335086D01*
X92224926Y-74035086D02*
X92224926Y-73335086D01*
X92058260Y-73335086D01*
X91958260Y-73368420D01*
X91891593Y-73435086D01*
X91858260Y-73501753D01*
X91824926Y-73635086D01*
X91824926Y-73735086D01*
X91858260Y-73868420D01*
X91891593Y-73935086D01*
X91958260Y-74001753D01*
X92058260Y-74035086D01*
X92224926Y-74035086D01*
X106507146Y-68234386D02*
X106173813Y-68234386D01*
X106573813Y-68434386D02*
X106340480Y-67734386D01*
X106107146Y-68434386D01*
X105540480Y-68434386D02*
X105873813Y-68434386D01*
X105873813Y-67734386D01*
X104907146Y-68434386D02*
X105140480Y-68101053D01*
X105307146Y-68434386D02*
X105307146Y-67734386D01*
X105040480Y-67734386D01*
X104973813Y-67767720D01*
X104940480Y-67801053D01*
X104907146Y-67867720D01*
X104907146Y-67967720D01*
X104940480Y-68034386D01*
X104973813Y-68067720D01*
X105040480Y-68101053D01*
X105307146Y-68101053D01*
X104707146Y-67734386D02*
X104307146Y-67734386D01*
X104507146Y-68434386D02*
X104507146Y-67734386D01*
X103391746Y-68226766D02*
X103058413Y-68226766D01*
X103458413Y-68426766D02*
X103225080Y-67726766D01*
X102991746Y-68426766D01*
X102525080Y-68060100D02*
X102425080Y-68093433D01*
X102391746Y-68126766D01*
X102358413Y-68193433D01*
X102358413Y-68293433D01*
X102391746Y-68360100D01*
X102425080Y-68393433D01*
X102491746Y-68426766D01*
X102758413Y-68426766D01*
X102758413Y-67726766D01*
X102525080Y-67726766D01*
X102458413Y-67760100D01*
X102425080Y-67793433D01*
X102391746Y-67860100D01*
X102391746Y-67926766D01*
X102425080Y-67993433D01*
X102458413Y-68026766D01*
X102525080Y-68060100D01*
X102758413Y-68060100D01*
X101502860Y-68247086D02*
X101169526Y-68247086D01*
X101569526Y-68447086D02*
X101336193Y-67747086D01*
X101102860Y-68447086D01*
X100969526Y-67747086D02*
X100569526Y-67747086D01*
X100769526Y-68447086D02*
X100769526Y-67747086D01*
X99936193Y-68380420D02*
X99969526Y-68413753D01*
X100069526Y-68447086D01*
X100136193Y-68447086D01*
X100236193Y-68413753D01*
X100302860Y-68347086D01*
X100336193Y-68280420D01*
X100369526Y-68147086D01*
X100369526Y-68047086D01*
X100336193Y-67913753D01*
X100302860Y-67847086D01*
X100236193Y-67780420D01*
X100136193Y-67747086D01*
X100069526Y-67747086D01*
X99969526Y-67780420D01*
X99936193Y-67813753D01*
X99636193Y-68447086D02*
X99636193Y-67747086D01*
X99636193Y-68080420D02*
X99236193Y-68080420D01*
X99236193Y-68447086D02*
X99236193Y-67747086D01*
X98576013Y-67777566D02*
X98342680Y-68477566D01*
X98109346Y-67777566D01*
X97476013Y-68410900D02*
X97509346Y-68444233D01*
X97609346Y-68477566D01*
X97676013Y-68477566D01*
X97776013Y-68444233D01*
X97842680Y-68377566D01*
X97876013Y-68310900D01*
X97909346Y-68177566D01*
X97909346Y-68077566D01*
X97876013Y-67944233D01*
X97842680Y-67877566D01*
X97776013Y-67810900D01*
X97676013Y-67777566D01*
X97609346Y-67777566D01*
X97509346Y-67810900D01*
X97476013Y-67844233D01*
X96776013Y-68410900D02*
X96809346Y-68444233D01*
X96909346Y-68477566D01*
X96976013Y-68477566D01*
X97076013Y-68444233D01*
X97142680Y-68377566D01*
X97176013Y-68310900D01*
X97209346Y-68177566D01*
X97209346Y-68077566D01*
X97176013Y-67944233D01*
X97142680Y-67877566D01*
X97076013Y-67810900D01*
X96976013Y-67777566D01*
X96909346Y-67777566D01*
X96809346Y-67810900D01*
X96776013Y-67844233D01*
X96096973Y-67757246D02*
X95863640Y-68457246D01*
X95630306Y-67757246D01*
X95396973Y-68457246D02*
X95396973Y-67757246D01*
X95130306Y-67757246D01*
X95063640Y-67790580D01*
X95030306Y-67823913D01*
X94996973Y-67890580D01*
X94996973Y-67990580D01*
X95030306Y-68057246D01*
X95063640Y-68090580D01*
X95130306Y-68123913D01*
X95396973Y-68123913D01*
X94696973Y-68457246D02*
X94696973Y-67757246D01*
X94430306Y-67757246D01*
X94363640Y-67790580D01*
X94330306Y-67823913D01*
X94296973Y-67890580D01*
X94296973Y-67990580D01*
X94330306Y-68057246D01*
X94363640Y-68090580D01*
X94430306Y-68123913D01*
X94696973Y-68123913D01*
X112120347Y-65725728D02*
X112120347Y-66582871D01*
X112773412Y-58044388D02*
X112011507Y-58044388D01*
X112392460Y-58425340D02*
X112392460Y-57663436D01*
X112327440Y-60086501D02*
X112327440Y-59610311D01*
X112803631Y-59562692D01*
X112756012Y-59610311D01*
X112708393Y-59705549D01*
X112708393Y-59943644D01*
X112756012Y-60038882D01*
X112803631Y-60086501D01*
X112898869Y-60134120D01*
X113136964Y-60134120D01*
X113232202Y-60086501D01*
X113279821Y-60038882D01*
X113327440Y-59943644D01*
X113327440Y-59705549D01*
X113279821Y-59610311D01*
X113232202Y-59562692D01*
X112660774Y-60467454D02*
X113327440Y-60705549D01*
X112660774Y-60943644D01*
X112946488Y-61324597D02*
X112946488Y-62086501D01*
X112422679Y-62515073D02*
X112375060Y-62562692D01*
X112327440Y-62657930D01*
X112327440Y-62896025D01*
X112375060Y-62991263D01*
X112422679Y-63038882D01*
X112517917Y-63086501D01*
X112613155Y-63086501D01*
X112756012Y-63038882D01*
X113327440Y-62467454D01*
X113327440Y-63086501D01*
X112327440Y-63705549D02*
X112327440Y-63800787D01*
X112375060Y-63896025D01*
X112422679Y-63943644D01*
X112517917Y-63991263D01*
X112708393Y-64038882D01*
X112946488Y-64038882D01*
X113136964Y-63991263D01*
X113232202Y-63943644D01*
X113279821Y-63896025D01*
X113327440Y-63800787D01*
X113327440Y-63705549D01*
X113279821Y-63610311D01*
X113232202Y-63562692D01*
X113136964Y-63515073D01*
X112946488Y-63467454D01*
X112708393Y-63467454D01*
X112517917Y-63515073D01*
X112422679Y-63562692D01*
X112375060Y-63610311D01*
X112327440Y-63705549D01*
X112660774Y-64372216D02*
X113327440Y-64610311D01*
X112660774Y-64848406D01*
X93024753Y-68447086D02*
X93258086Y-68113753D01*
X93424753Y-68447086D02*
X93424753Y-67747086D01*
X93158086Y-67747086D01*
X93091420Y-67780420D01*
X93058086Y-67813753D01*
X93024753Y-67880420D01*
X93024753Y-67980420D01*
X93058086Y-68047086D01*
X93091420Y-68080420D01*
X93158086Y-68113753D01*
X93424753Y-68113753D01*
X92758086Y-68413753D02*
X92658086Y-68447086D01*
X92491420Y-68447086D01*
X92424753Y-68413753D01*
X92391420Y-68380420D01*
X92358086Y-68313753D01*
X92358086Y-68247086D01*
X92391420Y-68180420D01*
X92424753Y-68147086D01*
X92491420Y-68113753D01*
X92624753Y-68080420D01*
X92691420Y-68047086D01*
X92724753Y-68013753D01*
X92758086Y-67947086D01*
X92758086Y-67880420D01*
X92724753Y-67813753D01*
X92691420Y-67780420D01*
X92624753Y-67747086D01*
X92458086Y-67747086D01*
X92358086Y-67780420D01*
X92158086Y-67747086D02*
X91758086Y-67747086D01*
X91958086Y-68447086D02*
X91958086Y-67747086D01*
X84960034Y-59106133D02*
X84960034Y-59487085D01*
X85626700Y-59248990D02*
X84769558Y-59248990D01*
X84674320Y-59296609D01*
X84626700Y-59391847D01*
X84626700Y-59487085D01*
X85626700Y-60248990D02*
X85102891Y-60248990D01*
X85007653Y-60201371D01*
X84960034Y-60106133D01*
X84960034Y-59915657D01*
X85007653Y-59820419D01*
X85579081Y-60248990D02*
X85626700Y-60153752D01*
X85626700Y-59915657D01*
X85579081Y-59820419D01*
X85483843Y-59772800D01*
X85388605Y-59772800D01*
X85293367Y-59820419D01*
X85245748Y-59915657D01*
X85245748Y-60153752D01*
X85198129Y-60248990D01*
X85626700Y-60725180D02*
X84626700Y-60725180D01*
X85007653Y-60725180D02*
X84960034Y-60820419D01*
X84960034Y-61010895D01*
X85007653Y-61106133D01*
X85055272Y-61153752D01*
X85150510Y-61201371D01*
X85436224Y-61201371D01*
X85531462Y-61153752D01*
X85579081Y-61106133D01*
X85626700Y-61010895D01*
X85626700Y-60820419D01*
X85579081Y-60725180D01*
X84960034Y-61629942D02*
X85960034Y-61629942D01*
X85007653Y-61629942D02*
X84960034Y-61725180D01*
X84960034Y-61915657D01*
X85007653Y-62010895D01*
X85055272Y-62058514D01*
X85150510Y-62106133D01*
X85436224Y-62106133D01*
X85531462Y-62058514D01*
X85579081Y-62010895D01*
X85626700Y-61915657D01*
X85626700Y-61725180D01*
X85579081Y-61629942D01*
X85626700Y-62534704D02*
X84960034Y-62534704D01*
X84626700Y-62534704D02*
X84674320Y-62487085D01*
X84721939Y-62534704D01*
X84674320Y-62582323D01*
X84626700Y-62534704D01*
X84721939Y-62534704D01*
X85626700Y-63439466D02*
X84626700Y-63439466D01*
X85579081Y-63439466D02*
X85626700Y-63344228D01*
X85626700Y-63153752D01*
X85579081Y-63058514D01*
X85531462Y-63010895D01*
X85436224Y-62963276D01*
X85150510Y-62963276D01*
X85055272Y-63010895D01*
X85007653Y-63058514D01*
X84960034Y-63153752D01*
X84960034Y-63344228D01*
X85007653Y-63439466D01*
X85579081Y-64296609D02*
X85626700Y-64201371D01*
X85626700Y-64010895D01*
X85579081Y-63915657D01*
X85483843Y-63868038D01*
X85102891Y-63868038D01*
X85007653Y-63915657D01*
X84960034Y-64010895D01*
X84960034Y-64201371D01*
X85007653Y-64296609D01*
X85102891Y-64344228D01*
X85198129Y-64344228D01*
X85293367Y-63868038D01*
X86610034Y-57701371D02*
X87276700Y-57939466D01*
X86610034Y-58177561D01*
X86371939Y-58510895D02*
X86324320Y-58558514D01*
X86276700Y-58653752D01*
X86276700Y-58891847D01*
X86324320Y-58987085D01*
X86371939Y-59034704D01*
X86467177Y-59082323D01*
X86562415Y-59082323D01*
X86705272Y-59034704D01*
X87276700Y-58463276D01*
X87276700Y-59082323D01*
X86895748Y-60272800D02*
X86895748Y-61034704D01*
X87276700Y-62272800D02*
X86610034Y-62272800D01*
X86800510Y-62272800D02*
X86705272Y-62320419D01*
X86657653Y-62368038D01*
X86610034Y-62463276D01*
X86610034Y-62558514D01*
X87229081Y-63272800D02*
X87276700Y-63177561D01*
X87276700Y-62987085D01*
X87229081Y-62891847D01*
X87133843Y-62844228D01*
X86752891Y-62844228D01*
X86657653Y-62891847D01*
X86610034Y-62987085D01*
X86610034Y-63177561D01*
X86657653Y-63272800D01*
X86752891Y-63320419D01*
X86848129Y-63320419D01*
X86943367Y-62844228D01*
X86610034Y-63653752D02*
X87276700Y-63891847D01*
X86610034Y-64129942D01*
X86371939Y-65225180D02*
X86324320Y-65272800D01*
X86276700Y-65368038D01*
X86276700Y-65606133D01*
X86324320Y-65701371D01*
X86371939Y-65748990D01*
X86467177Y-65796609D01*
X86562415Y-65796609D01*
X86705272Y-65748990D01*
X87276700Y-65177561D01*
X87276700Y-65796609D01*
M02*
