M48
; DRILL file {KiCad 5.1.4} date Thu 17 Oct 2019 02:18:35 PM AEDT
; FORMAT={-:-/ absolute / inch / decimal}
; #@! TF.CreationDate,2019-10-17T14:18:35+11:00
; #@! TF.GenerationSoftware,Kicad,Pcbnew,5.1.4
FMAT,2
INCH
T1C0.0118
T2C0.0197
T3C0.0394
T4C0.0433
T5C0.0598
T6C0.1063
T7C0.0354
%
G90
G05
T1
X3.5276Y-2.3819
X3.5276Y-2.4094
X3.5276Y-2.437
X3.5276Y-2.4646
X3.5551Y-2.3819
X3.5551Y-2.4094
X3.5551Y-2.437
X3.5551Y-2.4646
X3.6269Y-2.5377
X3.6272Y-2.3331
X3.6272Y-2.4724
X3.6273Y-2.3874
X3.6274Y-2.436
X3.6963Y-2.4462
X3.6984Y-2.4144
X3.7264Y-2.6177
X3.7553Y-2.4733
X3.7714Y-2.3955
X3.7743Y-2.2042
X3.7844Y-2.6167
X3.8425Y-2.3163
X3.8425Y-2.3497
X3.8434Y-2.617
X3.8595Y-2.2013
X3.8726Y-2.2829
X3.8726Y-2.3163
X3.8726Y-2.3497
X3.8788Y-2.496
X3.8956Y-2.4586
X3.9025Y-2.6174
X3.9032Y-2.2829
X3.9032Y-2.3163
X3.9032Y-2.3497
X3.9035Y-2.2002
X3.9289Y-2.4314
X3.9477Y-2.2359
X3.96Y-2.06
X3.96Y-2.09
X3.96Y-2.12
X3.9616Y-2.6176
X3.9686Y-2.185
X3.99Y-2.06
X4.0151Y-2.3507
X4.0196Y-2.618
X4.02Y-2.06
X4.0478Y-2.4295
X4.0789Y-2.6175
X4.1026Y-2.4294
X4.1142Y-2.0669
X4.1142Y-2.0965
X4.1142Y-2.126
X4.1437Y-2.0669
X4.1437Y-2.0965
X4.1437Y-2.126
X4.208Y-2.2657
T2
X4.2722Y-2.0862
X4.2956Y-2.0298
X4.2956Y-2.1426
X4.352Y-2.0065
X4.352Y-2.1659
X4.4083Y-2.0298
X4.4083Y-2.1426
X4.4317Y-2.0862
X4.2722Y-2.7911
X4.2956Y-2.7348
X4.2956Y-2.8475
X4.352Y-2.7114
X4.352Y-2.8709
X4.4083Y-2.7348
X4.4083Y-2.8475
X4.4317Y-2.7911
X3.375Y-2.7911
X3.3984Y-2.7348
X3.3984Y-2.8475
X3.4547Y-2.7114
X3.4547Y-2.8709
X3.5111Y-2.7348
X3.5111Y-2.8475
X3.5344Y-2.7911
X3.375Y-2.0862
X3.3984Y-2.0298
X3.3984Y-2.1426
X3.4547Y-2.0065
X3.4547Y-2.1659
X3.5111Y-2.0298
X3.5111Y-2.1426
X3.5344Y-2.0862
T3
X3.6528Y-2.7409
X3.6528Y-2.8409
X3.7528Y-2.7409
X3.7528Y-2.8409
X3.8528Y-2.7409
X3.8528Y-2.8409
X3.9528Y-2.7409
X3.9528Y-2.8409
X4.0528Y-2.7409
X4.0528Y-2.8409
X4.1528Y-2.7409
X4.1528Y-2.8409
T4
X3.3508Y-2.2602
X3.3508Y-2.6138
X3.585Y-2.2744
X3.585Y-2.5996
T5
X4.3354Y-2.34
X4.3354Y-2.54
T6
X4.352Y-2.0862
X4.352Y-2.7911
X3.4547Y-2.7911
X3.4547Y-2.0862
T7
X3.6343Y-2.2953
X3.6343Y-2.5787
T0
M30
