G04 #@! TF.GenerationSoftware,KiCad,Pcbnew,5.1.4*
G04 #@! TF.CreationDate,2019-10-17T14:18:33+11:00*
G04 #@! TF.ProjectId,fabulouspide,66616275-6c6f-4757-9370-6964652e6b69,rev?*
G04 #@! TF.SameCoordinates,Original*
G04 #@! TF.FileFunction,Legend,Top*
G04 #@! TF.FilePolarity,Positive*
%FSLAX46Y46*%
G04 Gerber Fmt 4.6, Leading zero omitted, Abs format (unit mm)*
G04 Created by KiCad (PCBNEW 5.1.4) date 2019-10-17 14:18:33*
%MOMM*%
%LPD*%
G04 APERTURE LIST*
%ADD10C,0.150000*%
%ADD11C,0.120000*%
G04 APERTURE END LIST*
D10*
X105029000Y-61280040D02*
X105247440Y-61498480D01*
X100733860Y-61280040D02*
X105029000Y-61280040D01*
X100444300Y-60990480D02*
X100733860Y-61280040D01*
X103802180Y-57884060D02*
X104033320Y-58115200D01*
X96756220Y-61694060D02*
X97101660Y-62039500D01*
X96057720Y-61694060D02*
X96756220Y-61694060D01*
X102400100Y-59395360D02*
X102748080Y-59743340D01*
X105592880Y-56989980D02*
X105592880Y-58455560D01*
X105354120Y-56751220D02*
X105592880Y-56989980D01*
X100076000Y-55626000D02*
X101040000Y-56566000D01*
X100076000Y-52139520D02*
X100076000Y-55626000D01*
X93837760Y-57089040D02*
X92153740Y-55405020D01*
X93837760Y-59819540D02*
X93837760Y-57089040D01*
X94165420Y-60147200D02*
X93837760Y-59819540D01*
X112380780Y-64147438D02*
X112380780Y-64623628D01*
X112856971Y-64671247D01*
X112809352Y-64623628D01*
X112761733Y-64528390D01*
X112761733Y-64290295D01*
X112809352Y-64195057D01*
X112856971Y-64147438D01*
X112952209Y-64099819D01*
X113190304Y-64099819D01*
X113285542Y-64147438D01*
X113333161Y-64195057D01*
X113380780Y-64290295D01*
X113380780Y-64528390D01*
X113333161Y-64623628D01*
X113285542Y-64671247D01*
X112714114Y-63766485D02*
X113380780Y-63528390D01*
X112714114Y-63290295D01*
X112999828Y-62909342D02*
X112999828Y-62147438D01*
X112476019Y-61718866D02*
X112428400Y-61671247D01*
X112380780Y-61576009D01*
X112380780Y-61337914D01*
X112428400Y-61242676D01*
X112476019Y-61195057D01*
X112571257Y-61147438D01*
X112666495Y-61147438D01*
X112809352Y-61195057D01*
X113380780Y-61766485D01*
X113380780Y-61147438D01*
X112380780Y-60528390D02*
X112380780Y-60433152D01*
X112428400Y-60337914D01*
X112476019Y-60290295D01*
X112571257Y-60242676D01*
X112761733Y-60195057D01*
X112999828Y-60195057D01*
X113190304Y-60242676D01*
X113285542Y-60290295D01*
X113333161Y-60337914D01*
X113380780Y-60433152D01*
X113380780Y-60528390D01*
X113333161Y-60623628D01*
X113285542Y-60671247D01*
X113190304Y-60718866D01*
X112999828Y-60766485D01*
X112761733Y-60766485D01*
X112571257Y-60718866D01*
X112476019Y-60671247D01*
X112428400Y-60623628D01*
X112380780Y-60528390D01*
X112714114Y-59861723D02*
X113380780Y-59623628D01*
X112714114Y-59385533D01*
X113319227Y-68482791D02*
X113319227Y-67625648D01*
X112892887Y-55857448D02*
X113654792Y-55857448D01*
X113273840Y-56238400D02*
X113273840Y-55476496D01*
X103151940Y-51851560D02*
X105986580Y-51851560D01*
X105984040Y-54729380D02*
X103151940Y-54729380D01*
X100430940Y-56710700D02*
X100430940Y-57235700D01*
X96130940Y-61010700D02*
X96130940Y-60485700D01*
X100430940Y-61010700D02*
X100430940Y-60485700D01*
X96130940Y-56710700D02*
X96655940Y-56710700D01*
X96130940Y-61010700D02*
X96655940Y-61010700D01*
X100430940Y-61010700D02*
X99905940Y-61010700D01*
X100430940Y-56710700D02*
X99905940Y-56710700D01*
D11*
X90300000Y-57150000D02*
X86060000Y-57150000D01*
X93320000Y-66650000D02*
X91800000Y-66650000D01*
X90300000Y-66650000D02*
X86060000Y-66650000D01*
X93320000Y-57150000D02*
X93320000Y-58650000D01*
X93320000Y-57150000D02*
X91800000Y-57150000D01*
X93320000Y-65150000D02*
X93320000Y-66650000D01*
D10*
X94399100Y-59991940D02*
X94990920Y-59991940D01*
X94399100Y-60347540D02*
X94990920Y-60347540D01*
X94698820Y-60047820D02*
X94399100Y-60347540D01*
X94996000Y-60345000D02*
X94698820Y-60047820D01*
X94162880Y-59359480D02*
X94162880Y-60941900D01*
X95242380Y-59359480D02*
X95242380Y-60941900D01*
X95003620Y-58150760D02*
X94411800Y-58150760D01*
X95003620Y-57795160D02*
X94411800Y-57795160D01*
X94703900Y-58094880D02*
X95003620Y-57795160D01*
X94406720Y-57797700D02*
X94703900Y-58094880D01*
X95239840Y-58783220D02*
X95239840Y-57200800D01*
X94160340Y-58783220D02*
X94160340Y-57200800D01*
X106436160Y-56286400D02*
X106436160Y-55694580D01*
X106791760Y-56286400D02*
X106791760Y-55694580D01*
X106492040Y-55986680D02*
X106791760Y-56286400D01*
X106789220Y-55689500D02*
X106492040Y-55986680D01*
X105803700Y-56522620D02*
X107386120Y-56522620D01*
X105803700Y-55443120D02*
X107386120Y-55443120D01*
X93797120Y-54610000D02*
X93205300Y-54610000D01*
X93797120Y-54254400D02*
X93205300Y-54254400D01*
X93497400Y-54554120D02*
X93797120Y-54254400D01*
X93200220Y-54256940D02*
X93497400Y-54554120D01*
X94033340Y-55242460D02*
X94033340Y-53660040D01*
X92953840Y-55242460D02*
X92953840Y-53660040D01*
D11*
X99793340Y-65986340D02*
X99793340Y-66986340D01*
X98433340Y-66986340D02*
X98433340Y-65986340D01*
X102581160Y-57126060D02*
X102581160Y-56126060D01*
X103941160Y-56126060D02*
X103941160Y-57126060D01*
X101791580Y-57981300D02*
X102791580Y-57981300D01*
X102791580Y-59341300D02*
X101791580Y-59341300D01*
X101064780Y-54516340D02*
X101064780Y-53516340D01*
X102424780Y-53516340D02*
X102424780Y-54516340D01*
X95320400Y-65988880D02*
X95320400Y-66988880D01*
X93960400Y-66988880D02*
X93960400Y-65988880D01*
X96806300Y-65982660D02*
X96806300Y-66982660D01*
X95446300Y-66982660D02*
X95446300Y-65982660D01*
X98297280Y-65985200D02*
X98297280Y-66985200D01*
X96937280Y-66985200D02*
X96937280Y-65985200D01*
X101281780Y-65987040D02*
X101281780Y-66987040D01*
X99921780Y-66987040D02*
X99921780Y-65987040D01*
X97526160Y-63435780D02*
X96526160Y-63435780D01*
X96526160Y-62075780D02*
X97526160Y-62075780D01*
X102780380Y-65992120D02*
X102780380Y-66992120D01*
X101420380Y-66992120D02*
X101420380Y-65992120D01*
X105777580Y-65992120D02*
X105777580Y-66992120D01*
X104417580Y-66992120D02*
X104417580Y-65992120D01*
X104278980Y-65986340D02*
X104278980Y-66986340D01*
X102918980Y-66986340D02*
X102918980Y-65986340D01*
X100790820Y-61999580D02*
X101790820Y-61999580D01*
X101790820Y-63359580D02*
X100790820Y-63359580D01*
X101067320Y-57118440D02*
X101067320Y-56118440D01*
X102427320Y-56118440D02*
X102427320Y-57118440D01*
X91450000Y-68290000D02*
X91450000Y-73490000D01*
X104210000Y-68290000D02*
X91450000Y-68290000D01*
X106810000Y-73490000D02*
X91450000Y-73490000D01*
X104210000Y-68290000D02*
X104210000Y-70890000D01*
X104210000Y-70890000D02*
X106810000Y-70890000D01*
X106810000Y-70890000D02*
X106810000Y-73490000D01*
X105480000Y-68290000D02*
X106810000Y-68290000D01*
X106810000Y-68290000D02*
X106810000Y-69620000D01*
X107579160Y-67056000D02*
X107579160Y-56896000D01*
X106309160Y-67056000D02*
X113929160Y-67056000D01*
X113929160Y-67056000D02*
X113929160Y-56896000D01*
X113929160Y-56896000D02*
X106309160Y-56896000D01*
X106309160Y-56896000D02*
X106309160Y-67056000D01*
X105308960Y-56302860D02*
X105308960Y-57002860D01*
X104108960Y-57002860D02*
X104108960Y-56302860D01*
X95540940Y-53810700D02*
X95540940Y-54510700D01*
X94340940Y-54510700D02*
X94340940Y-53810700D01*
X98310940Y-53800700D02*
X98310940Y-54500700D01*
X97110940Y-54500700D02*
X97110940Y-53800700D01*
X99690940Y-53800700D02*
X99690940Y-54500700D01*
X98490940Y-54500700D02*
X98490940Y-53800700D01*
X96940940Y-53800700D02*
X96940940Y-54500700D01*
X95740940Y-54500700D02*
X95740940Y-53800700D01*
D10*
X104397821Y-51459379D02*
X104302583Y-51411760D01*
X104207345Y-51316521D01*
X104064488Y-51173664D01*
X103969250Y-51126045D01*
X103874012Y-51126045D01*
X103921631Y-51364140D02*
X103826393Y-51316521D01*
X103731155Y-51221283D01*
X103683536Y-51030807D01*
X103683536Y-50697474D01*
X103731155Y-50506998D01*
X103826393Y-50411760D01*
X103921631Y-50364140D01*
X104112107Y-50364140D01*
X104207345Y-50411760D01*
X104302583Y-50506998D01*
X104350202Y-50697474D01*
X104350202Y-51030807D01*
X104302583Y-51221283D01*
X104207345Y-51316521D01*
X104112107Y-51364140D01*
X103921631Y-51364140D01*
X105302583Y-51364140D02*
X104731155Y-51364140D01*
X105016869Y-51364140D02*
X105016869Y-50364140D01*
X104921631Y-50506998D01*
X104826393Y-50602236D01*
X104731155Y-50649855D01*
X104834440Y-63090964D02*
X105643964Y-63090964D01*
X105739202Y-63043345D01*
X105786821Y-62995726D01*
X105834440Y-62900488D01*
X105834440Y-62710012D01*
X105786821Y-62614774D01*
X105739202Y-62567155D01*
X105643964Y-62519536D01*
X104834440Y-62519536D01*
X105834440Y-61519536D02*
X105834440Y-62090964D01*
X105834440Y-61805250D02*
X104834440Y-61805250D01*
X104977298Y-61900488D01*
X105072536Y-61995726D01*
X105120155Y-62090964D01*
X83910846Y-67890140D02*
X83910846Y-68604426D01*
X83863227Y-68747283D01*
X83767989Y-68842521D01*
X83625132Y-68890140D01*
X83529894Y-68890140D01*
X84910846Y-68890140D02*
X84339418Y-68890140D01*
X84625132Y-68890140D02*
X84625132Y-67890140D01*
X84529894Y-68032998D01*
X84434656Y-68128236D01*
X84339418Y-68175855D01*
X91811100Y-56018655D02*
X90811100Y-56018655D01*
X90811100Y-55780560D01*
X90858720Y-55637702D01*
X90953958Y-55542464D01*
X91049196Y-55494845D01*
X91239672Y-55447226D01*
X91382529Y-55447226D01*
X91573005Y-55494845D01*
X91668243Y-55542464D01*
X91763481Y-55637702D01*
X91811100Y-55780560D01*
X91811100Y-56018655D01*
X90906339Y-55066274D02*
X90858720Y-55018655D01*
X90811100Y-54923417D01*
X90811100Y-54685321D01*
X90858720Y-54590083D01*
X90906339Y-54542464D01*
X91001577Y-54494845D01*
X91096815Y-54494845D01*
X91239672Y-54542464D01*
X91811100Y-55113893D01*
X91811100Y-54494845D01*
X93986124Y-56789580D02*
X93986124Y-55789580D01*
X94224220Y-55789580D01*
X94367077Y-55837200D01*
X94462315Y-55932438D01*
X94509934Y-56027676D01*
X94557553Y-56218152D01*
X94557553Y-56361009D01*
X94509934Y-56551485D01*
X94462315Y-56646723D01*
X94367077Y-56741961D01*
X94224220Y-56789580D01*
X93986124Y-56789580D01*
X95509934Y-56789580D02*
X94938505Y-56789580D01*
X95224220Y-56789580D02*
X95224220Y-55789580D01*
X95128981Y-55932438D01*
X95033743Y-56027676D01*
X94938505Y-56075295D01*
X107579420Y-55231255D02*
X106579420Y-55231255D01*
X106579420Y-54993160D01*
X106627040Y-54850302D01*
X106722278Y-54755064D01*
X106817516Y-54707445D01*
X107007992Y-54659826D01*
X107150849Y-54659826D01*
X107341325Y-54707445D01*
X107436563Y-54755064D01*
X107531801Y-54850302D01*
X107579420Y-54993160D01*
X107579420Y-55231255D01*
X106912754Y-53802683D02*
X107579420Y-53802683D01*
X106531801Y-54040779D02*
X107246087Y-54278874D01*
X107246087Y-53659826D01*
X93965020Y-52571875D02*
X92965020Y-52571875D01*
X92965020Y-52333780D01*
X93012640Y-52190922D01*
X93107878Y-52095684D01*
X93203116Y-52048065D01*
X93393592Y-52000446D01*
X93536449Y-52000446D01*
X93726925Y-52048065D01*
X93822163Y-52095684D01*
X93917401Y-52190922D01*
X93965020Y-52333780D01*
X93965020Y-52571875D01*
X92965020Y-51667113D02*
X92965020Y-51048065D01*
X93345973Y-51381399D01*
X93345973Y-51238541D01*
X93393592Y-51143303D01*
X93441211Y-51095684D01*
X93536449Y-51048065D01*
X93774544Y-51048065D01*
X93869782Y-51095684D01*
X93917401Y-51143303D01*
X93965020Y-51238541D01*
X93965020Y-51524256D01*
X93917401Y-51619494D01*
X93869782Y-51667113D01*
X99740980Y-64518777D02*
X99264790Y-64852110D01*
X99740980Y-65090205D02*
X98740980Y-65090205D01*
X98740980Y-64709253D01*
X98788600Y-64614015D01*
X98836219Y-64566396D01*
X98931457Y-64518777D01*
X99074314Y-64518777D01*
X99169552Y-64566396D01*
X99217171Y-64614015D01*
X99264790Y-64709253D01*
X99264790Y-65090205D01*
X99740980Y-63566396D02*
X99740980Y-64137824D01*
X99740980Y-63852110D02*
X98740980Y-63852110D01*
X98883838Y-63947348D01*
X98979076Y-64042586D01*
X99026695Y-64137824D01*
X99740980Y-62614015D02*
X99740980Y-63185443D01*
X99740980Y-62899729D02*
X98740980Y-62899729D01*
X98883838Y-62994967D01*
X98979076Y-63090205D01*
X99026695Y-63185443D01*
X104785420Y-60094097D02*
X104309230Y-60427430D01*
X104785420Y-60665525D02*
X103785420Y-60665525D01*
X103785420Y-60284573D01*
X103833040Y-60189335D01*
X103880659Y-60141716D01*
X103975897Y-60094097D01*
X104118754Y-60094097D01*
X104213992Y-60141716D01*
X104261611Y-60189335D01*
X104309230Y-60284573D01*
X104309230Y-60665525D01*
X104785420Y-59141716D02*
X104785420Y-59713144D01*
X104785420Y-59427430D02*
X103785420Y-59427430D01*
X103928278Y-59522668D01*
X104023516Y-59617906D01*
X104071135Y-59713144D01*
X103785420Y-58236954D02*
X103785420Y-58713144D01*
X104261611Y-58760763D01*
X104213992Y-58713144D01*
X104166373Y-58617906D01*
X104166373Y-58379811D01*
X104213992Y-58284573D01*
X104261611Y-58236954D01*
X104356849Y-58189335D01*
X104594944Y-58189335D01*
X104690182Y-58236954D01*
X104737801Y-58284573D01*
X104785420Y-58379811D01*
X104785420Y-58617906D01*
X104737801Y-58713144D01*
X104690182Y-58760763D01*
X101665802Y-60939940D02*
X101332469Y-60463750D01*
X101094374Y-60939940D02*
X101094374Y-59939940D01*
X101475326Y-59939940D01*
X101570564Y-59987560D01*
X101618183Y-60035179D01*
X101665802Y-60130417D01*
X101665802Y-60273274D01*
X101618183Y-60368512D01*
X101570564Y-60416131D01*
X101475326Y-60463750D01*
X101094374Y-60463750D01*
X102618183Y-60939940D02*
X102046755Y-60939940D01*
X102332469Y-60939940D02*
X102332469Y-59939940D01*
X102237231Y-60082798D01*
X102141993Y-60178036D01*
X102046755Y-60225655D01*
X103475326Y-60273274D02*
X103475326Y-60939940D01*
X103237231Y-59892321D02*
X102999136Y-60606607D01*
X103618183Y-60606607D01*
X102372380Y-51962857D02*
X101896190Y-52296190D01*
X102372380Y-52534285D02*
X101372380Y-52534285D01*
X101372380Y-52153333D01*
X101420000Y-52058095D01*
X101467619Y-52010476D01*
X101562857Y-51962857D01*
X101705714Y-51962857D01*
X101800952Y-52010476D01*
X101848571Y-52058095D01*
X101896190Y-52153333D01*
X101896190Y-52534285D01*
X102372380Y-51010476D02*
X102372380Y-51581904D01*
X102372380Y-51296190D02*
X101372380Y-51296190D01*
X101515238Y-51391428D01*
X101610476Y-51486666D01*
X101658095Y-51581904D01*
X101372380Y-50677142D02*
X101372380Y-50058095D01*
X101753333Y-50391428D01*
X101753333Y-50248571D01*
X101800952Y-50153333D01*
X101848571Y-50105714D01*
X101943809Y-50058095D01*
X102181904Y-50058095D01*
X102277142Y-50105714D01*
X102324761Y-50153333D01*
X102372380Y-50248571D01*
X102372380Y-50534285D01*
X102324761Y-50629523D01*
X102277142Y-50677142D01*
X94881960Y-64523857D02*
X94405770Y-64857190D01*
X94881960Y-65095285D02*
X93881960Y-65095285D01*
X93881960Y-64714333D01*
X93929580Y-64619095D01*
X93977199Y-64571476D01*
X94072437Y-64523857D01*
X94215294Y-64523857D01*
X94310532Y-64571476D01*
X94358151Y-64619095D01*
X94405770Y-64714333D01*
X94405770Y-65095285D01*
X94881960Y-63571476D02*
X94881960Y-64142904D01*
X94881960Y-63857190D02*
X93881960Y-63857190D01*
X94024818Y-63952428D01*
X94120056Y-64047666D01*
X94167675Y-64142904D01*
X93881960Y-62952428D02*
X93881960Y-62857190D01*
X93929580Y-62761952D01*
X93977199Y-62714333D01*
X94072437Y-62666714D01*
X94262913Y-62619095D01*
X94501008Y-62619095D01*
X94691484Y-62666714D01*
X94786722Y-62714333D01*
X94834341Y-62761952D01*
X94881960Y-62857190D01*
X94881960Y-62952428D01*
X94834341Y-63047666D01*
X94786722Y-63095285D01*
X94691484Y-63142904D01*
X94501008Y-63190523D01*
X94262913Y-63190523D01*
X94072437Y-63142904D01*
X93977199Y-63095285D01*
X93929580Y-63047666D01*
X93881960Y-62952428D01*
X96637100Y-64540426D02*
X96160910Y-64873760D01*
X96637100Y-65111855D02*
X95637100Y-65111855D01*
X95637100Y-64730902D01*
X95684720Y-64635664D01*
X95732339Y-64588045D01*
X95827577Y-64540426D01*
X95970434Y-64540426D01*
X96065672Y-64588045D01*
X96113291Y-64635664D01*
X96160910Y-64730902D01*
X96160910Y-65111855D01*
X96637100Y-64064236D02*
X96637100Y-63873760D01*
X96589481Y-63778521D01*
X96541862Y-63730902D01*
X96399005Y-63635664D01*
X96208529Y-63588045D01*
X95827577Y-63588045D01*
X95732339Y-63635664D01*
X95684720Y-63683283D01*
X95637100Y-63778521D01*
X95637100Y-63968998D01*
X95684720Y-64064236D01*
X95732339Y-64111855D01*
X95827577Y-64159474D01*
X96065672Y-64159474D01*
X96160910Y-64111855D01*
X96208529Y-64064236D01*
X96256148Y-63968998D01*
X96256148Y-63778521D01*
X96208529Y-63683283D01*
X96160910Y-63635664D01*
X96065672Y-63588045D01*
X98107760Y-64530266D02*
X97631570Y-64863600D01*
X98107760Y-65101695D02*
X97107760Y-65101695D01*
X97107760Y-64720742D01*
X97155380Y-64625504D01*
X97202999Y-64577885D01*
X97298237Y-64530266D01*
X97441094Y-64530266D01*
X97536332Y-64577885D01*
X97583951Y-64625504D01*
X97631570Y-64720742D01*
X97631570Y-65101695D01*
X97536332Y-63958838D02*
X97488713Y-64054076D01*
X97441094Y-64101695D01*
X97345856Y-64149314D01*
X97298237Y-64149314D01*
X97202999Y-64101695D01*
X97155380Y-64054076D01*
X97107760Y-63958838D01*
X97107760Y-63768361D01*
X97155380Y-63673123D01*
X97202999Y-63625504D01*
X97298237Y-63577885D01*
X97345856Y-63577885D01*
X97441094Y-63625504D01*
X97488713Y-63673123D01*
X97536332Y-63768361D01*
X97536332Y-63958838D01*
X97583951Y-64054076D01*
X97631570Y-64101695D01*
X97726808Y-64149314D01*
X97917284Y-64149314D01*
X98012522Y-64101695D01*
X98060141Y-64054076D01*
X98107760Y-63958838D01*
X98107760Y-63768361D01*
X98060141Y-63673123D01*
X98012522Y-63625504D01*
X97917284Y-63577885D01*
X97726808Y-63577885D01*
X97631570Y-63625504D01*
X97583951Y-63673123D01*
X97536332Y-63768361D01*
X101097340Y-64537886D02*
X100621150Y-64871220D01*
X101097340Y-65109315D02*
X100097340Y-65109315D01*
X100097340Y-64728362D01*
X100144960Y-64633124D01*
X100192579Y-64585505D01*
X100287817Y-64537886D01*
X100430674Y-64537886D01*
X100525912Y-64585505D01*
X100573531Y-64633124D01*
X100621150Y-64728362D01*
X100621150Y-65109315D01*
X100097340Y-64204553D02*
X100097340Y-63537886D01*
X101097340Y-63966458D01*
X94896073Y-62288680D02*
X94562740Y-61812490D01*
X94324644Y-62288680D02*
X94324644Y-61288680D01*
X94705597Y-61288680D01*
X94800835Y-61336300D01*
X94848454Y-61383919D01*
X94896073Y-61479157D01*
X94896073Y-61622014D01*
X94848454Y-61717252D01*
X94800835Y-61764871D01*
X94705597Y-61812490D01*
X94324644Y-61812490D01*
X95753216Y-61288680D02*
X95562740Y-61288680D01*
X95467501Y-61336300D01*
X95419882Y-61383919D01*
X95324644Y-61526776D01*
X95277025Y-61717252D01*
X95277025Y-62098204D01*
X95324644Y-62193442D01*
X95372263Y-62241061D01*
X95467501Y-62288680D01*
X95657978Y-62288680D01*
X95753216Y-62241061D01*
X95800835Y-62193442D01*
X95848454Y-62098204D01*
X95848454Y-61860109D01*
X95800835Y-61764871D01*
X95753216Y-61717252D01*
X95657978Y-61669633D01*
X95467501Y-61669633D01*
X95372263Y-61717252D01*
X95324644Y-61764871D01*
X95277025Y-61860109D01*
X102585780Y-64517566D02*
X102109590Y-64850900D01*
X102585780Y-65088995D02*
X101585780Y-65088995D01*
X101585780Y-64708042D01*
X101633400Y-64612804D01*
X101681019Y-64565185D01*
X101776257Y-64517566D01*
X101919114Y-64517566D01*
X102014352Y-64565185D01*
X102061971Y-64612804D01*
X102109590Y-64708042D01*
X102109590Y-65088995D01*
X101585780Y-63612804D02*
X101585780Y-64088995D01*
X102061971Y-64136614D01*
X102014352Y-64088995D01*
X101966733Y-63993757D01*
X101966733Y-63755661D01*
X102014352Y-63660423D01*
X102061971Y-63612804D01*
X102157209Y-63565185D01*
X102395304Y-63565185D01*
X102490542Y-63612804D01*
X102538161Y-63660423D01*
X102585780Y-63755661D01*
X102585780Y-63993757D01*
X102538161Y-64088995D01*
X102490542Y-64136614D01*
X105585520Y-64517566D02*
X105109330Y-64850900D01*
X105585520Y-65088995D02*
X104585520Y-65088995D01*
X104585520Y-64708042D01*
X104633140Y-64612804D01*
X104680759Y-64565185D01*
X104775997Y-64517566D01*
X104918854Y-64517566D01*
X105014092Y-64565185D01*
X105061711Y-64612804D01*
X105109330Y-64708042D01*
X105109330Y-65088995D01*
X104918854Y-63660423D02*
X105585520Y-63660423D01*
X104537901Y-63898519D02*
X105252187Y-64136614D01*
X105252187Y-63517566D01*
X104122480Y-64517566D02*
X103646290Y-64850900D01*
X104122480Y-65088995D02*
X103122480Y-65088995D01*
X103122480Y-64708042D01*
X103170100Y-64612804D01*
X103217719Y-64565185D01*
X103312957Y-64517566D01*
X103455814Y-64517566D01*
X103551052Y-64565185D01*
X103598671Y-64612804D01*
X103646290Y-64708042D01*
X103646290Y-65088995D01*
X103122480Y-64184233D02*
X103122480Y-63565185D01*
X103503433Y-63898519D01*
X103503433Y-63755661D01*
X103551052Y-63660423D01*
X103598671Y-63612804D01*
X103693909Y-63565185D01*
X103932004Y-63565185D01*
X104027242Y-63612804D01*
X104074861Y-63660423D01*
X104122480Y-63755661D01*
X104122480Y-64041376D01*
X104074861Y-64136614D01*
X104027242Y-64184233D01*
X103323093Y-63210700D02*
X102989760Y-62734510D01*
X102751664Y-63210700D02*
X102751664Y-62210700D01*
X103132617Y-62210700D01*
X103227855Y-62258320D01*
X103275474Y-62305939D01*
X103323093Y-62401177D01*
X103323093Y-62544034D01*
X103275474Y-62639272D01*
X103227855Y-62686891D01*
X103132617Y-62734510D01*
X102751664Y-62734510D01*
X103704045Y-62305939D02*
X103751664Y-62258320D01*
X103846902Y-62210700D01*
X104084998Y-62210700D01*
X104180236Y-62258320D01*
X104227855Y-62305939D01*
X104275474Y-62401177D01*
X104275474Y-62496415D01*
X104227855Y-62639272D01*
X103656426Y-63210700D01*
X104275474Y-63210700D01*
X100832380Y-51296666D02*
X100356190Y-51630000D01*
X100832380Y-51868095D02*
X99832380Y-51868095D01*
X99832380Y-51487142D01*
X99880000Y-51391904D01*
X99927619Y-51344285D01*
X100022857Y-51296666D01*
X100165714Y-51296666D01*
X100260952Y-51344285D01*
X100308571Y-51391904D01*
X100356190Y-51487142D01*
X100356190Y-51868095D01*
X100832380Y-50344285D02*
X100832380Y-50915714D01*
X100832380Y-50630000D02*
X99832380Y-50630000D01*
X99975238Y-50725238D01*
X100070476Y-50820476D01*
X100118095Y-50915714D01*
X107149306Y-72820280D02*
X107149306Y-73534566D01*
X107101687Y-73677423D01*
X107006449Y-73772661D01*
X106863592Y-73820280D01*
X106768354Y-73820280D01*
X108054068Y-73153614D02*
X108054068Y-73820280D01*
X107815973Y-72772661D02*
X107577878Y-73486947D01*
X108196925Y-73486947D01*
X107558246Y-67379600D02*
X107558246Y-68093886D01*
X107510627Y-68236743D01*
X107415389Y-68331981D01*
X107272532Y-68379600D01*
X107177294Y-68379600D01*
X107986818Y-67474839D02*
X108034437Y-67427220D01*
X108129675Y-67379600D01*
X108367770Y-67379600D01*
X108463008Y-67427220D01*
X108510627Y-67474839D01*
X108558246Y-67570077D01*
X108558246Y-67665315D01*
X108510627Y-67808172D01*
X107939199Y-68379600D01*
X108558246Y-68379600D01*
X105889062Y-59765226D02*
X105936681Y-59812845D01*
X105984300Y-59955702D01*
X105984300Y-60050940D01*
X105936681Y-60193798D01*
X105841443Y-60289036D01*
X105746205Y-60336655D01*
X105555729Y-60384274D01*
X105412872Y-60384274D01*
X105222396Y-60336655D01*
X105127158Y-60289036D01*
X105031920Y-60193798D01*
X104984300Y-60050940D01*
X104984300Y-59955702D01*
X105031920Y-59812845D01*
X105079539Y-59765226D01*
X104984300Y-58860464D02*
X104984300Y-59336655D01*
X105460491Y-59384274D01*
X105412872Y-59336655D01*
X105365253Y-59241417D01*
X105365253Y-59003321D01*
X105412872Y-58908083D01*
X105460491Y-58860464D01*
X105555729Y-58812845D01*
X105793824Y-58812845D01*
X105889062Y-58860464D01*
X105936681Y-58908083D01*
X105984300Y-59003321D01*
X105984300Y-59241417D01*
X105936681Y-59336655D01*
X105889062Y-59384274D01*
X95338082Y-51977366D02*
X95385701Y-52024985D01*
X95433320Y-52167842D01*
X95433320Y-52263080D01*
X95385701Y-52405938D01*
X95290463Y-52501176D01*
X95195225Y-52548795D01*
X95004749Y-52596414D01*
X94861892Y-52596414D01*
X94671416Y-52548795D01*
X94576178Y-52501176D01*
X94480940Y-52405938D01*
X94433320Y-52263080D01*
X94433320Y-52167842D01*
X94480940Y-52024985D01*
X94528559Y-51977366D01*
X94766654Y-51120223D02*
X95433320Y-51120223D01*
X94385701Y-51358319D02*
X95099987Y-51596414D01*
X95099987Y-50977366D01*
X98148082Y-51967366D02*
X98195701Y-52014985D01*
X98243320Y-52157842D01*
X98243320Y-52253080D01*
X98195701Y-52395938D01*
X98100463Y-52491176D01*
X98005225Y-52538795D01*
X97814749Y-52586414D01*
X97671892Y-52586414D01*
X97481416Y-52538795D01*
X97386178Y-52491176D01*
X97290940Y-52395938D01*
X97243320Y-52253080D01*
X97243320Y-52157842D01*
X97290940Y-52014985D01*
X97338559Y-51967366D01*
X97243320Y-51634033D02*
X97243320Y-51014985D01*
X97624273Y-51348319D01*
X97624273Y-51205461D01*
X97671892Y-51110223D01*
X97719511Y-51062604D01*
X97814749Y-51014985D01*
X98052844Y-51014985D01*
X98148082Y-51062604D01*
X98195701Y-51110223D01*
X98243320Y-51205461D01*
X98243320Y-51491176D01*
X98195701Y-51586414D01*
X98148082Y-51634033D01*
X99498082Y-51967366D02*
X99545701Y-52014985D01*
X99593320Y-52157842D01*
X99593320Y-52253080D01*
X99545701Y-52395938D01*
X99450463Y-52491176D01*
X99355225Y-52538795D01*
X99164749Y-52586414D01*
X99021892Y-52586414D01*
X98831416Y-52538795D01*
X98736178Y-52491176D01*
X98640940Y-52395938D01*
X98593320Y-52253080D01*
X98593320Y-52157842D01*
X98640940Y-52014985D01*
X98688559Y-51967366D01*
X98688559Y-51586414D02*
X98640940Y-51538795D01*
X98593320Y-51443557D01*
X98593320Y-51205461D01*
X98640940Y-51110223D01*
X98688559Y-51062604D01*
X98783797Y-51014985D01*
X98879035Y-51014985D01*
X99021892Y-51062604D01*
X99593320Y-51634033D01*
X99593320Y-51014985D01*
X96708082Y-51967366D02*
X96755701Y-52014985D01*
X96803320Y-52157842D01*
X96803320Y-52253080D01*
X96755701Y-52395938D01*
X96660463Y-52491176D01*
X96565225Y-52538795D01*
X96374749Y-52586414D01*
X96231892Y-52586414D01*
X96041416Y-52538795D01*
X95946178Y-52491176D01*
X95850940Y-52395938D01*
X95803320Y-52253080D01*
X95803320Y-52157842D01*
X95850940Y-52014985D01*
X95898559Y-51967366D01*
X96803320Y-51014985D02*
X96803320Y-51586414D01*
X96803320Y-51300700D02*
X95803320Y-51300700D01*
X95946178Y-51395938D01*
X96041416Y-51491176D01*
X96089035Y-51586414D01*
M02*
