G04 #@! TF.GenerationSoftware,KiCad,Pcbnew,5.1.4*
G04 #@! TF.CreationDate,2019-10-17T14:18:33+11:00*
G04 #@! TF.ProjectId,fabulouspide,66616275-6c6f-4757-9370-6964652e6b69,rev?*
G04 #@! TF.SameCoordinates,Original*
G04 #@! TF.FileFunction,Soldermask,Bot*
G04 #@! TF.FilePolarity,Negative*
%FSLAX46Y46*%
G04 Gerber Fmt 4.6, Leading zero omitted, Abs format (unit mm)*
G04 Created by KiCad (PCBNEW 5.1.4) date 2019-10-17 14:18:33*
%MOMM*%
%LPD*%
G04 APERTURE LIST*
%ADD10C,0.100000*%
G04 APERTURE END LIST*
D10*
G36*
X111357196Y-68201063D02*
G01*
X111867054Y-68412253D01*
X111969016Y-68480382D01*
X112325916Y-68718855D01*
X112716145Y-69109084D01*
X112919687Y-69413706D01*
X113022747Y-69567946D01*
X113233937Y-70077804D01*
X113341600Y-70619065D01*
X113341600Y-71170935D01*
X113233937Y-71712196D01*
X113022747Y-72222054D01*
X113022746Y-72222055D01*
X112716145Y-72680916D01*
X112325916Y-73071145D01*
X112196531Y-73157597D01*
X111867054Y-73377747D01*
X111357196Y-73588937D01*
X110815935Y-73696600D01*
X110264065Y-73696600D01*
X109722804Y-73588937D01*
X109212946Y-73377747D01*
X108883469Y-73157597D01*
X108754084Y-73071145D01*
X108363855Y-72680916D01*
X108057254Y-72222055D01*
X108057253Y-72222054D01*
X107846063Y-71712196D01*
X107738400Y-71170935D01*
X107738400Y-70619065D01*
X107846063Y-70077804D01*
X108057253Y-69567946D01*
X108160313Y-69413706D01*
X108363855Y-69109084D01*
X108754084Y-68718855D01*
X109110984Y-68480382D01*
X109212946Y-68412253D01*
X109722804Y-68201063D01*
X110264065Y-68093400D01*
X110815935Y-68093400D01*
X111357196Y-68201063D01*
X111357196Y-68201063D01*
G37*
G36*
X88567196Y-68201063D02*
G01*
X89077054Y-68412253D01*
X89179016Y-68480382D01*
X89535916Y-68718855D01*
X89926145Y-69109084D01*
X90129687Y-69413706D01*
X90232747Y-69567946D01*
X90443937Y-70077804D01*
X90551600Y-70619065D01*
X90551600Y-71170935D01*
X90443937Y-71712196D01*
X90232747Y-72222054D01*
X90232746Y-72222055D01*
X89926145Y-72680916D01*
X89535916Y-73071145D01*
X89406531Y-73157597D01*
X89077054Y-73377747D01*
X88567196Y-73588937D01*
X88025935Y-73696600D01*
X87474065Y-73696600D01*
X86932804Y-73588937D01*
X86422946Y-73377747D01*
X86093469Y-73157597D01*
X85964084Y-73071145D01*
X85573855Y-72680916D01*
X85267254Y-72222055D01*
X85267253Y-72222054D01*
X85056063Y-71712196D01*
X84948400Y-71170935D01*
X84948400Y-70619065D01*
X85056063Y-70077804D01*
X85267253Y-69567946D01*
X85370313Y-69413706D01*
X85573855Y-69109084D01*
X85964084Y-68718855D01*
X86320984Y-68480382D01*
X86422946Y-68412253D01*
X86932804Y-68201063D01*
X87474065Y-68093400D01*
X88025935Y-68093400D01*
X88567196Y-68201063D01*
X88567196Y-68201063D01*
G37*
G36*
X97953346Y-71212990D02*
G01*
X98046546Y-71222169D01*
X98225923Y-71276583D01*
X98225926Y-71276584D01*
X98240956Y-71284618D01*
X98391238Y-71364945D01*
X98436259Y-71401893D01*
X98536139Y-71483861D01*
X98618107Y-71583741D01*
X98655055Y-71628762D01*
X98696556Y-71706406D01*
X98743416Y-71794074D01*
X98743417Y-71794077D01*
X98797831Y-71973454D01*
X98816204Y-72160000D01*
X98797831Y-72346546D01*
X98759410Y-72473202D01*
X98743416Y-72525926D01*
X98741034Y-72530382D01*
X98655055Y-72691238D01*
X98618107Y-72736259D01*
X98536139Y-72836139D01*
X98436259Y-72918107D01*
X98391238Y-72955055D01*
X98313594Y-72996556D01*
X98225926Y-73043416D01*
X98225923Y-73043417D01*
X98046546Y-73097831D01*
X97953346Y-73107010D01*
X97906747Y-73111600D01*
X97813253Y-73111600D01*
X97766654Y-73107010D01*
X97673454Y-73097831D01*
X97494077Y-73043417D01*
X97494074Y-73043416D01*
X97406406Y-72996556D01*
X97328762Y-72955055D01*
X97283741Y-72918107D01*
X97183861Y-72836139D01*
X97101893Y-72736259D01*
X97064945Y-72691238D01*
X96978966Y-72530382D01*
X96976584Y-72525926D01*
X96960590Y-72473202D01*
X96922169Y-72346546D01*
X96903796Y-72160000D01*
X96922169Y-71973454D01*
X96976583Y-71794077D01*
X96976584Y-71794074D01*
X97023444Y-71706406D01*
X97064945Y-71628762D01*
X97101893Y-71583741D01*
X97183861Y-71483861D01*
X97283741Y-71401893D01*
X97328762Y-71364945D01*
X97479044Y-71284618D01*
X97494074Y-71276584D01*
X97494077Y-71276583D01*
X97673454Y-71222169D01*
X97766654Y-71212990D01*
X97813253Y-71208400D01*
X97906747Y-71208400D01*
X97953346Y-71212990D01*
X97953346Y-71212990D01*
G37*
G36*
X103033346Y-71212990D02*
G01*
X103126546Y-71222169D01*
X103305923Y-71276583D01*
X103305926Y-71276584D01*
X103320956Y-71284618D01*
X103471238Y-71364945D01*
X103516259Y-71401893D01*
X103616139Y-71483861D01*
X103698107Y-71583741D01*
X103735055Y-71628762D01*
X103776556Y-71706406D01*
X103823416Y-71794074D01*
X103823417Y-71794077D01*
X103877831Y-71973454D01*
X103896204Y-72160000D01*
X103877831Y-72346546D01*
X103839410Y-72473202D01*
X103823416Y-72525926D01*
X103821034Y-72530382D01*
X103735055Y-72691238D01*
X103698107Y-72736259D01*
X103616139Y-72836139D01*
X103516259Y-72918107D01*
X103471238Y-72955055D01*
X103393594Y-72996556D01*
X103305926Y-73043416D01*
X103305923Y-73043417D01*
X103126546Y-73097831D01*
X103033346Y-73107010D01*
X102986747Y-73111600D01*
X102893253Y-73111600D01*
X102846654Y-73107010D01*
X102753454Y-73097831D01*
X102574077Y-73043417D01*
X102574074Y-73043416D01*
X102486406Y-72996556D01*
X102408762Y-72955055D01*
X102363741Y-72918107D01*
X102263861Y-72836139D01*
X102181893Y-72736259D01*
X102144945Y-72691238D01*
X102058966Y-72530382D01*
X102056584Y-72525926D01*
X102040590Y-72473202D01*
X102002169Y-72346546D01*
X101983796Y-72160000D01*
X102002169Y-71973454D01*
X102056583Y-71794077D01*
X102056584Y-71794074D01*
X102103444Y-71706406D01*
X102144945Y-71628762D01*
X102181893Y-71583741D01*
X102263861Y-71483861D01*
X102363741Y-71401893D01*
X102408762Y-71364945D01*
X102559044Y-71284618D01*
X102574074Y-71276584D01*
X102574077Y-71276583D01*
X102753454Y-71222169D01*
X102846654Y-71212990D01*
X102893253Y-71208400D01*
X102986747Y-71208400D01*
X103033346Y-71212990D01*
X103033346Y-71212990D01*
G37*
G36*
X105573346Y-71212990D02*
G01*
X105666546Y-71222169D01*
X105845923Y-71276583D01*
X105845926Y-71276584D01*
X105860956Y-71284618D01*
X106011238Y-71364945D01*
X106056259Y-71401893D01*
X106156139Y-71483861D01*
X106238107Y-71583741D01*
X106275055Y-71628762D01*
X106316556Y-71706406D01*
X106363416Y-71794074D01*
X106363417Y-71794077D01*
X106417831Y-71973454D01*
X106436204Y-72160000D01*
X106417831Y-72346546D01*
X106379410Y-72473202D01*
X106363416Y-72525926D01*
X106361034Y-72530382D01*
X106275055Y-72691238D01*
X106238107Y-72736259D01*
X106156139Y-72836139D01*
X106056259Y-72918107D01*
X106011238Y-72955055D01*
X105933594Y-72996556D01*
X105845926Y-73043416D01*
X105845923Y-73043417D01*
X105666546Y-73097831D01*
X105573346Y-73107010D01*
X105526747Y-73111600D01*
X105433253Y-73111600D01*
X105386654Y-73107010D01*
X105293454Y-73097831D01*
X105114077Y-73043417D01*
X105114074Y-73043416D01*
X105026406Y-72996556D01*
X104948762Y-72955055D01*
X104903741Y-72918107D01*
X104803861Y-72836139D01*
X104721893Y-72736259D01*
X104684945Y-72691238D01*
X104598966Y-72530382D01*
X104596584Y-72525926D01*
X104580590Y-72473202D01*
X104542169Y-72346546D01*
X104523796Y-72160000D01*
X104542169Y-71973454D01*
X104596583Y-71794077D01*
X104596584Y-71794074D01*
X104643444Y-71706406D01*
X104684945Y-71628762D01*
X104721893Y-71583741D01*
X104803861Y-71483861D01*
X104903741Y-71401893D01*
X104948762Y-71364945D01*
X105099044Y-71284618D01*
X105114074Y-71276584D01*
X105114077Y-71276583D01*
X105293454Y-71222169D01*
X105386654Y-71212990D01*
X105433253Y-71208400D01*
X105526747Y-71208400D01*
X105573346Y-71212990D01*
X105573346Y-71212990D01*
G37*
G36*
X100493346Y-71212990D02*
G01*
X100586546Y-71222169D01*
X100765923Y-71276583D01*
X100765926Y-71276584D01*
X100780956Y-71284618D01*
X100931238Y-71364945D01*
X100976259Y-71401893D01*
X101076139Y-71483861D01*
X101158107Y-71583741D01*
X101195055Y-71628762D01*
X101236556Y-71706406D01*
X101283416Y-71794074D01*
X101283417Y-71794077D01*
X101337831Y-71973454D01*
X101356204Y-72160000D01*
X101337831Y-72346546D01*
X101299410Y-72473202D01*
X101283416Y-72525926D01*
X101281034Y-72530382D01*
X101195055Y-72691238D01*
X101158107Y-72736259D01*
X101076139Y-72836139D01*
X100976259Y-72918107D01*
X100931238Y-72955055D01*
X100853594Y-72996556D01*
X100765926Y-73043416D01*
X100765923Y-73043417D01*
X100586546Y-73097831D01*
X100493346Y-73107010D01*
X100446747Y-73111600D01*
X100353253Y-73111600D01*
X100306654Y-73107010D01*
X100213454Y-73097831D01*
X100034077Y-73043417D01*
X100034074Y-73043416D01*
X99946406Y-72996556D01*
X99868762Y-72955055D01*
X99823741Y-72918107D01*
X99723861Y-72836139D01*
X99641893Y-72736259D01*
X99604945Y-72691238D01*
X99518966Y-72530382D01*
X99516584Y-72525926D01*
X99500590Y-72473202D01*
X99462169Y-72346546D01*
X99443796Y-72160000D01*
X99462169Y-71973454D01*
X99516583Y-71794077D01*
X99516584Y-71794074D01*
X99563444Y-71706406D01*
X99604945Y-71628762D01*
X99641893Y-71583741D01*
X99723861Y-71483861D01*
X99823741Y-71401893D01*
X99868762Y-71364945D01*
X100019044Y-71284618D01*
X100034074Y-71276584D01*
X100034077Y-71276583D01*
X100213454Y-71222169D01*
X100306654Y-71212990D01*
X100353253Y-71208400D01*
X100446747Y-71208400D01*
X100493346Y-71212990D01*
X100493346Y-71212990D01*
G37*
G36*
X95413346Y-71212990D02*
G01*
X95506546Y-71222169D01*
X95685923Y-71276583D01*
X95685926Y-71276584D01*
X95700956Y-71284618D01*
X95851238Y-71364945D01*
X95896259Y-71401893D01*
X95996139Y-71483861D01*
X96078107Y-71583741D01*
X96115055Y-71628762D01*
X96156556Y-71706406D01*
X96203416Y-71794074D01*
X96203417Y-71794077D01*
X96257831Y-71973454D01*
X96276204Y-72160000D01*
X96257831Y-72346546D01*
X96219410Y-72473202D01*
X96203416Y-72525926D01*
X96201034Y-72530382D01*
X96115055Y-72691238D01*
X96078107Y-72736259D01*
X95996139Y-72836139D01*
X95896259Y-72918107D01*
X95851238Y-72955055D01*
X95773594Y-72996556D01*
X95685926Y-73043416D01*
X95685923Y-73043417D01*
X95506546Y-73097831D01*
X95413346Y-73107010D01*
X95366747Y-73111600D01*
X95273253Y-73111600D01*
X95226654Y-73107010D01*
X95133454Y-73097831D01*
X94954077Y-73043417D01*
X94954074Y-73043416D01*
X94866406Y-72996556D01*
X94788762Y-72955055D01*
X94743741Y-72918107D01*
X94643861Y-72836139D01*
X94561893Y-72736259D01*
X94524945Y-72691238D01*
X94438966Y-72530382D01*
X94436584Y-72525926D01*
X94420590Y-72473202D01*
X94382169Y-72346546D01*
X94363796Y-72160000D01*
X94382169Y-71973454D01*
X94436583Y-71794077D01*
X94436584Y-71794074D01*
X94483444Y-71706406D01*
X94524945Y-71628762D01*
X94561893Y-71583741D01*
X94643861Y-71483861D01*
X94743741Y-71401893D01*
X94788762Y-71364945D01*
X94939044Y-71284618D01*
X94954074Y-71276584D01*
X94954077Y-71276583D01*
X95133454Y-71222169D01*
X95226654Y-71212990D01*
X95273253Y-71208400D01*
X95366747Y-71208400D01*
X95413346Y-71212990D01*
X95413346Y-71212990D01*
G37*
G36*
X92873346Y-71212990D02*
G01*
X92966546Y-71222169D01*
X93145923Y-71276583D01*
X93145926Y-71276584D01*
X93160956Y-71284618D01*
X93311238Y-71364945D01*
X93356259Y-71401893D01*
X93456139Y-71483861D01*
X93538107Y-71583741D01*
X93575055Y-71628762D01*
X93616556Y-71706406D01*
X93663416Y-71794074D01*
X93663417Y-71794077D01*
X93717831Y-71973454D01*
X93736204Y-72160000D01*
X93717831Y-72346546D01*
X93679410Y-72473202D01*
X93663416Y-72525926D01*
X93661034Y-72530382D01*
X93575055Y-72691238D01*
X93538107Y-72736259D01*
X93456139Y-72836139D01*
X93356259Y-72918107D01*
X93311238Y-72955055D01*
X93233594Y-72996556D01*
X93145926Y-73043416D01*
X93145923Y-73043417D01*
X92966546Y-73097831D01*
X92873346Y-73107010D01*
X92826747Y-73111600D01*
X92733253Y-73111600D01*
X92686654Y-73107010D01*
X92593454Y-73097831D01*
X92414077Y-73043417D01*
X92414074Y-73043416D01*
X92326406Y-72996556D01*
X92248762Y-72955055D01*
X92203741Y-72918107D01*
X92103861Y-72836139D01*
X92021893Y-72736259D01*
X91984945Y-72691238D01*
X91898966Y-72530382D01*
X91896584Y-72525926D01*
X91880590Y-72473202D01*
X91842169Y-72346546D01*
X91823796Y-72160000D01*
X91842169Y-71973454D01*
X91896583Y-71794077D01*
X91896584Y-71794074D01*
X91943444Y-71706406D01*
X91984945Y-71628762D01*
X92021893Y-71583741D01*
X92103861Y-71483861D01*
X92203741Y-71401893D01*
X92248762Y-71364945D01*
X92399044Y-71284618D01*
X92414074Y-71276584D01*
X92414077Y-71276583D01*
X92593454Y-71222169D01*
X92686654Y-71212990D01*
X92733253Y-71208400D01*
X92826747Y-71208400D01*
X92873346Y-71212990D01*
X92873346Y-71212990D01*
G37*
G36*
X92873346Y-68672990D02*
G01*
X92966546Y-68682169D01*
X93145923Y-68736583D01*
X93145926Y-68736584D01*
X93233594Y-68783444D01*
X93311238Y-68824945D01*
X93356259Y-68861893D01*
X93456139Y-68943861D01*
X93515596Y-69016311D01*
X93575055Y-69088762D01*
X93604237Y-69143358D01*
X93663416Y-69254074D01*
X93663417Y-69254077D01*
X93717831Y-69433454D01*
X93736204Y-69620000D01*
X93717831Y-69806546D01*
X93669852Y-69964709D01*
X93663416Y-69985926D01*
X93616556Y-70073594D01*
X93575055Y-70151238D01*
X93538107Y-70196259D01*
X93456139Y-70296139D01*
X93356259Y-70378107D01*
X93311238Y-70415055D01*
X93244947Y-70450488D01*
X93145926Y-70503416D01*
X93145923Y-70503417D01*
X92966546Y-70557831D01*
X92873346Y-70567010D01*
X92826747Y-70571600D01*
X92733253Y-70571600D01*
X92686654Y-70567010D01*
X92593454Y-70557831D01*
X92414077Y-70503417D01*
X92414074Y-70503416D01*
X92315053Y-70450488D01*
X92248762Y-70415055D01*
X92203741Y-70378107D01*
X92103861Y-70296139D01*
X92021893Y-70196259D01*
X91984945Y-70151238D01*
X91943444Y-70073594D01*
X91896584Y-69985926D01*
X91890148Y-69964709D01*
X91842169Y-69806546D01*
X91823796Y-69620000D01*
X91842169Y-69433454D01*
X91896583Y-69254077D01*
X91896584Y-69254074D01*
X91955763Y-69143358D01*
X91984945Y-69088762D01*
X92044404Y-69016311D01*
X92103861Y-68943861D01*
X92203741Y-68861893D01*
X92248762Y-68824945D01*
X92326406Y-68783444D01*
X92414074Y-68736584D01*
X92414077Y-68736583D01*
X92593454Y-68682169D01*
X92686654Y-68672990D01*
X92733253Y-68668400D01*
X92826747Y-68668400D01*
X92873346Y-68672990D01*
X92873346Y-68672990D01*
G37*
G36*
X95413346Y-68672990D02*
G01*
X95506546Y-68682169D01*
X95685923Y-68736583D01*
X95685926Y-68736584D01*
X95773594Y-68783444D01*
X95851238Y-68824945D01*
X95896259Y-68861893D01*
X95996139Y-68943861D01*
X96055596Y-69016311D01*
X96115055Y-69088762D01*
X96144237Y-69143358D01*
X96203416Y-69254074D01*
X96203417Y-69254077D01*
X96257831Y-69433454D01*
X96276204Y-69620000D01*
X96257831Y-69806546D01*
X96209852Y-69964709D01*
X96203416Y-69985926D01*
X96156556Y-70073594D01*
X96115055Y-70151238D01*
X96078107Y-70196259D01*
X95996139Y-70296139D01*
X95896259Y-70378107D01*
X95851238Y-70415055D01*
X95784947Y-70450488D01*
X95685926Y-70503416D01*
X95685923Y-70503417D01*
X95506546Y-70557831D01*
X95413346Y-70567010D01*
X95366747Y-70571600D01*
X95273253Y-70571600D01*
X95226654Y-70567010D01*
X95133454Y-70557831D01*
X94954077Y-70503417D01*
X94954074Y-70503416D01*
X94855053Y-70450488D01*
X94788762Y-70415055D01*
X94743741Y-70378107D01*
X94643861Y-70296139D01*
X94561893Y-70196259D01*
X94524945Y-70151238D01*
X94483444Y-70073594D01*
X94436584Y-69985926D01*
X94430148Y-69964709D01*
X94382169Y-69806546D01*
X94363796Y-69620000D01*
X94382169Y-69433454D01*
X94436583Y-69254077D01*
X94436584Y-69254074D01*
X94495763Y-69143358D01*
X94524945Y-69088762D01*
X94584404Y-69016311D01*
X94643861Y-68943861D01*
X94743741Y-68861893D01*
X94788762Y-68824945D01*
X94866406Y-68783444D01*
X94954074Y-68736584D01*
X94954077Y-68736583D01*
X95133454Y-68682169D01*
X95226654Y-68672990D01*
X95273253Y-68668400D01*
X95366747Y-68668400D01*
X95413346Y-68672990D01*
X95413346Y-68672990D01*
G37*
G36*
X97953346Y-68672990D02*
G01*
X98046546Y-68682169D01*
X98225923Y-68736583D01*
X98225926Y-68736584D01*
X98313594Y-68783444D01*
X98391238Y-68824945D01*
X98436259Y-68861893D01*
X98536139Y-68943861D01*
X98595596Y-69016311D01*
X98655055Y-69088762D01*
X98684237Y-69143358D01*
X98743416Y-69254074D01*
X98743417Y-69254077D01*
X98797831Y-69433454D01*
X98816204Y-69620000D01*
X98797831Y-69806546D01*
X98749852Y-69964709D01*
X98743416Y-69985926D01*
X98696556Y-70073594D01*
X98655055Y-70151238D01*
X98618107Y-70196259D01*
X98536139Y-70296139D01*
X98436259Y-70378107D01*
X98391238Y-70415055D01*
X98324947Y-70450488D01*
X98225926Y-70503416D01*
X98225923Y-70503417D01*
X98046546Y-70557831D01*
X97953346Y-70567010D01*
X97906747Y-70571600D01*
X97813253Y-70571600D01*
X97766654Y-70567010D01*
X97673454Y-70557831D01*
X97494077Y-70503417D01*
X97494074Y-70503416D01*
X97395053Y-70450488D01*
X97328762Y-70415055D01*
X97283741Y-70378107D01*
X97183861Y-70296139D01*
X97101893Y-70196259D01*
X97064945Y-70151238D01*
X97023444Y-70073594D01*
X96976584Y-69985926D01*
X96970148Y-69964709D01*
X96922169Y-69806546D01*
X96903796Y-69620000D01*
X96922169Y-69433454D01*
X96976583Y-69254077D01*
X96976584Y-69254074D01*
X97035763Y-69143358D01*
X97064945Y-69088762D01*
X97124404Y-69016311D01*
X97183861Y-68943861D01*
X97283741Y-68861893D01*
X97328762Y-68824945D01*
X97406406Y-68783444D01*
X97494074Y-68736584D01*
X97494077Y-68736583D01*
X97673454Y-68682169D01*
X97766654Y-68672990D01*
X97813253Y-68668400D01*
X97906747Y-68668400D01*
X97953346Y-68672990D01*
X97953346Y-68672990D01*
G37*
G36*
X100493346Y-68672990D02*
G01*
X100586546Y-68682169D01*
X100765923Y-68736583D01*
X100765926Y-68736584D01*
X100853594Y-68783444D01*
X100931238Y-68824945D01*
X100976259Y-68861893D01*
X101076139Y-68943861D01*
X101135596Y-69016311D01*
X101195055Y-69088762D01*
X101224237Y-69143358D01*
X101283416Y-69254074D01*
X101283417Y-69254077D01*
X101337831Y-69433454D01*
X101356204Y-69620000D01*
X101337831Y-69806546D01*
X101289852Y-69964709D01*
X101283416Y-69985926D01*
X101236556Y-70073594D01*
X101195055Y-70151238D01*
X101158107Y-70196259D01*
X101076139Y-70296139D01*
X100976259Y-70378107D01*
X100931238Y-70415055D01*
X100864947Y-70450488D01*
X100765926Y-70503416D01*
X100765923Y-70503417D01*
X100586546Y-70557831D01*
X100493346Y-70567010D01*
X100446747Y-70571600D01*
X100353253Y-70571600D01*
X100306654Y-70567010D01*
X100213454Y-70557831D01*
X100034077Y-70503417D01*
X100034074Y-70503416D01*
X99935053Y-70450488D01*
X99868762Y-70415055D01*
X99823741Y-70378107D01*
X99723861Y-70296139D01*
X99641893Y-70196259D01*
X99604945Y-70151238D01*
X99563444Y-70073594D01*
X99516584Y-69985926D01*
X99510148Y-69964709D01*
X99462169Y-69806546D01*
X99443796Y-69620000D01*
X99462169Y-69433454D01*
X99516583Y-69254077D01*
X99516584Y-69254074D01*
X99575763Y-69143358D01*
X99604945Y-69088762D01*
X99664404Y-69016311D01*
X99723861Y-68943861D01*
X99823741Y-68861893D01*
X99868762Y-68824945D01*
X99946406Y-68783444D01*
X100034074Y-68736584D01*
X100034077Y-68736583D01*
X100213454Y-68682169D01*
X100306654Y-68672990D01*
X100353253Y-68668400D01*
X100446747Y-68668400D01*
X100493346Y-68672990D01*
X100493346Y-68672990D01*
G37*
G36*
X106431600Y-70571600D02*
G01*
X104528400Y-70571600D01*
X104528400Y-68668400D01*
X106431600Y-68668400D01*
X106431600Y-70571600D01*
X106431600Y-70571600D01*
G37*
G36*
X103033346Y-68672990D02*
G01*
X103126546Y-68682169D01*
X103305923Y-68736583D01*
X103305926Y-68736584D01*
X103393594Y-68783444D01*
X103471238Y-68824945D01*
X103516259Y-68861893D01*
X103616139Y-68943861D01*
X103675596Y-69016311D01*
X103735055Y-69088762D01*
X103764237Y-69143358D01*
X103823416Y-69254074D01*
X103823417Y-69254077D01*
X103877831Y-69433454D01*
X103896204Y-69620000D01*
X103877831Y-69806546D01*
X103829852Y-69964709D01*
X103823416Y-69985926D01*
X103776556Y-70073594D01*
X103735055Y-70151238D01*
X103698107Y-70196259D01*
X103616139Y-70296139D01*
X103516259Y-70378107D01*
X103471238Y-70415055D01*
X103404947Y-70450488D01*
X103305926Y-70503416D01*
X103305923Y-70503417D01*
X103126546Y-70557831D01*
X103033346Y-70567010D01*
X102986747Y-70571600D01*
X102893253Y-70571600D01*
X102846654Y-70567010D01*
X102753454Y-70557831D01*
X102574077Y-70503417D01*
X102574074Y-70503416D01*
X102475053Y-70450488D01*
X102408762Y-70415055D01*
X102363741Y-70378107D01*
X102263861Y-70296139D01*
X102181893Y-70196259D01*
X102144945Y-70151238D01*
X102103444Y-70073594D01*
X102056584Y-69985926D01*
X102050148Y-69964709D01*
X102002169Y-69806546D01*
X101983796Y-69620000D01*
X102002169Y-69433454D01*
X102056583Y-69254077D01*
X102056584Y-69254074D01*
X102115763Y-69143358D01*
X102144945Y-69088762D01*
X102204404Y-69016311D01*
X102263861Y-68943861D01*
X102363741Y-68861893D01*
X102408762Y-68824945D01*
X102486406Y-68783444D01*
X102574074Y-68736584D01*
X102574077Y-68736583D01*
X102753454Y-68682169D01*
X102846654Y-68672990D01*
X102893253Y-68668400D01*
X102986747Y-68668400D01*
X103033346Y-68672990D01*
X103033346Y-68672990D01*
G37*
G36*
X85266385Y-65603803D02*
G01*
X85343818Y-65619205D01*
X85489700Y-65679631D01*
X85620990Y-65767356D01*
X85732644Y-65879010D01*
X85820369Y-66010300D01*
X85880795Y-66156182D01*
X85880795Y-66156183D01*
X85911600Y-66311048D01*
X85911600Y-66468952D01*
X85896197Y-66546385D01*
X85880795Y-66623818D01*
X85820369Y-66769700D01*
X85732644Y-66900990D01*
X85620990Y-67012644D01*
X85489700Y-67100369D01*
X85343818Y-67160795D01*
X85266385Y-67176197D01*
X85188952Y-67191600D01*
X85031048Y-67191600D01*
X84953615Y-67176197D01*
X84876182Y-67160795D01*
X84730300Y-67100369D01*
X84599010Y-67012644D01*
X84487356Y-66900990D01*
X84399631Y-66769700D01*
X84339205Y-66623818D01*
X84323803Y-66546385D01*
X84308400Y-66468952D01*
X84308400Y-66311048D01*
X84339205Y-66156183D01*
X84339205Y-66156182D01*
X84399631Y-66010300D01*
X84487356Y-65879010D01*
X84599010Y-65767356D01*
X84730300Y-65679631D01*
X84876182Y-65619205D01*
X84953615Y-65603803D01*
X85031048Y-65588400D01*
X85188952Y-65588400D01*
X85266385Y-65603803D01*
X85266385Y-65603803D01*
G37*
G36*
X92470893Y-64969597D02*
G01*
X92470895Y-64969598D01*
X92470896Y-64969598D01*
X92571281Y-65011178D01*
X92661625Y-65071544D01*
X92738456Y-65148375D01*
X92798822Y-65238719D01*
X92840402Y-65339104D01*
X92840403Y-65339107D01*
X92861600Y-65445671D01*
X92861600Y-65554329D01*
X92840626Y-65659773D01*
X92840402Y-65660896D01*
X92798822Y-65761281D01*
X92738456Y-65851625D01*
X92661625Y-65928456D01*
X92571281Y-65988822D01*
X92470896Y-66030402D01*
X92470895Y-66030402D01*
X92470893Y-66030403D01*
X92364329Y-66051600D01*
X92255671Y-66051600D01*
X92149107Y-66030403D01*
X92149105Y-66030402D01*
X92149104Y-66030402D01*
X92048719Y-65988822D01*
X92036037Y-65980348D01*
X92014435Y-65968802D01*
X91990986Y-65961688D01*
X91966600Y-65959286D01*
X91942214Y-65961688D01*
X91918765Y-65968800D01*
X91897154Y-65980351D01*
X91878212Y-65995896D01*
X91862667Y-66014838D01*
X91851116Y-66036449D01*
X91844002Y-66059898D01*
X91841600Y-66084285D01*
X91841600Y-66106982D01*
X91831813Y-66156183D01*
X91811564Y-66257984D01*
X91752645Y-66400227D01*
X91667108Y-66528241D01*
X91558241Y-66637108D01*
X91430227Y-66722645D01*
X91430226Y-66722646D01*
X91430225Y-66722646D01*
X91287984Y-66781564D01*
X91136982Y-66811600D01*
X90983018Y-66811600D01*
X90832016Y-66781564D01*
X90689775Y-66722646D01*
X90689774Y-66722646D01*
X90689773Y-66722645D01*
X90561759Y-66637108D01*
X90452892Y-66528241D01*
X90367355Y-66400227D01*
X90308436Y-66257984D01*
X90288187Y-66156183D01*
X90278400Y-66106982D01*
X90278400Y-65953018D01*
X90308436Y-65802016D01*
X90367354Y-65659775D01*
X90452891Y-65531760D01*
X90561760Y-65422891D01*
X90687151Y-65339107D01*
X90689773Y-65337355D01*
X90832016Y-65278436D01*
X90851100Y-65274640D01*
X90983018Y-65248400D01*
X91136982Y-65248400D01*
X91268900Y-65274640D01*
X91287984Y-65278436D01*
X91430227Y-65337355D01*
X91432849Y-65339107D01*
X91558240Y-65422891D01*
X91563609Y-65428260D01*
X91582551Y-65443805D01*
X91604162Y-65455356D01*
X91627611Y-65462469D01*
X91651997Y-65464871D01*
X91676383Y-65462469D01*
X91699832Y-65455356D01*
X91721443Y-65443805D01*
X91740385Y-65428260D01*
X91755930Y-65409318D01*
X91767481Y-65387707D01*
X91774594Y-65364257D01*
X91779596Y-65339107D01*
X91806299Y-65274642D01*
X91821178Y-65238719D01*
X91881544Y-65148375D01*
X91958375Y-65071544D01*
X92048719Y-65011178D01*
X92149104Y-64969598D01*
X92149105Y-64969598D01*
X92149107Y-64969597D01*
X92255671Y-64948400D01*
X92364329Y-64948400D01*
X92470893Y-64969597D01*
X92470893Y-64969597D01*
G37*
G36*
X110586328Y-62975948D02*
G01*
X110877800Y-63096680D01*
X110877802Y-63096681D01*
X111140120Y-63271956D01*
X111363204Y-63495040D01*
X111538480Y-63757360D01*
X111659212Y-64048832D01*
X111720760Y-64358255D01*
X111720760Y-64673745D01*
X111659212Y-64983168D01*
X111553360Y-65238716D01*
X111538479Y-65274642D01*
X111363204Y-65536960D01*
X111140120Y-65760044D01*
X110877802Y-65935319D01*
X110877801Y-65935320D01*
X110877800Y-65935320D01*
X110586328Y-66056052D01*
X110276905Y-66117600D01*
X109961415Y-66117600D01*
X109651992Y-66056052D01*
X109360520Y-65935320D01*
X109360519Y-65935320D01*
X109360518Y-65935319D01*
X109098200Y-65760044D01*
X108875116Y-65536960D01*
X108699841Y-65274642D01*
X108684960Y-65238716D01*
X108579108Y-64983168D01*
X108517560Y-64673745D01*
X108517560Y-64358255D01*
X108579108Y-64048832D01*
X108699840Y-63757360D01*
X108875116Y-63495040D01*
X109098200Y-63271956D01*
X109360518Y-63096681D01*
X109360520Y-63096680D01*
X109651992Y-62975948D01*
X109961415Y-62914400D01*
X110276905Y-62914400D01*
X110586328Y-62975948D01*
X110586328Y-62975948D01*
G37*
G36*
X111720760Y-61037600D02*
G01*
X108517560Y-61037600D01*
X108517560Y-57834400D01*
X111720760Y-57834400D01*
X111720760Y-61037600D01*
X111720760Y-61037600D01*
G37*
G36*
X91287984Y-57018436D02*
G01*
X91430227Y-57077355D01*
X91494669Y-57120414D01*
X91558240Y-57162891D01*
X91667109Y-57271760D01*
X91752646Y-57399775D01*
X91811564Y-57542016D01*
X91841600Y-57693018D01*
X91841600Y-57715715D01*
X91844002Y-57740101D01*
X91851115Y-57763550D01*
X91862666Y-57785161D01*
X91878211Y-57804103D01*
X91897153Y-57819648D01*
X91918764Y-57831199D01*
X91942213Y-57838312D01*
X91966599Y-57840714D01*
X91990985Y-57838312D01*
X92014434Y-57831199D01*
X92036037Y-57819652D01*
X92048719Y-57811178D01*
X92149104Y-57769598D01*
X92149105Y-57769598D01*
X92149107Y-57769597D01*
X92255671Y-57748400D01*
X92364329Y-57748400D01*
X92470893Y-57769597D01*
X92470895Y-57769598D01*
X92470896Y-57769598D01*
X92571281Y-57811178D01*
X92661625Y-57871544D01*
X92738456Y-57948375D01*
X92798822Y-58038719D01*
X92832642Y-58120369D01*
X92840403Y-58139107D01*
X92861600Y-58245671D01*
X92861600Y-58354329D01*
X92845406Y-58435743D01*
X92840402Y-58460896D01*
X92798822Y-58561281D01*
X92738456Y-58651625D01*
X92661625Y-58728456D01*
X92571281Y-58788822D01*
X92470896Y-58830402D01*
X92470895Y-58830402D01*
X92470893Y-58830403D01*
X92364329Y-58851600D01*
X92255671Y-58851600D01*
X92149107Y-58830403D01*
X92149105Y-58830402D01*
X92149104Y-58830402D01*
X92048719Y-58788822D01*
X91958375Y-58728456D01*
X91881544Y-58651625D01*
X91821178Y-58561281D01*
X91800388Y-58511088D01*
X91779596Y-58460893D01*
X91774594Y-58435743D01*
X91767481Y-58412294D01*
X91755930Y-58390683D01*
X91740385Y-58371741D01*
X91721444Y-58356196D01*
X91699833Y-58344644D01*
X91676384Y-58337531D01*
X91651998Y-58335129D01*
X91627612Y-58337531D01*
X91604163Y-58344644D01*
X91582552Y-58356195D01*
X91563609Y-58371740D01*
X91558241Y-58377108D01*
X91430227Y-58462645D01*
X91430226Y-58462646D01*
X91430225Y-58462646D01*
X91287984Y-58521564D01*
X91136982Y-58551600D01*
X90983018Y-58551600D01*
X90832016Y-58521564D01*
X90689775Y-58462646D01*
X90689774Y-58462646D01*
X90689773Y-58462645D01*
X90561759Y-58377108D01*
X90452892Y-58268241D01*
X90367355Y-58140227D01*
X90359130Y-58120369D01*
X90308436Y-57997984D01*
X90278400Y-57846982D01*
X90278400Y-57693018D01*
X90308436Y-57542016D01*
X90367354Y-57399775D01*
X90452891Y-57271760D01*
X90561760Y-57162891D01*
X90625331Y-57120414D01*
X90689773Y-57077355D01*
X90832016Y-57018436D01*
X90983018Y-56988400D01*
X91136982Y-56988400D01*
X91287984Y-57018436D01*
X91287984Y-57018436D01*
G37*
G36*
X85266385Y-56623803D02*
G01*
X85343818Y-56639205D01*
X85489700Y-56699631D01*
X85620990Y-56787356D01*
X85732644Y-56899010D01*
X85820369Y-57030300D01*
X85875290Y-57162892D01*
X85880795Y-57176183D01*
X85899807Y-57271759D01*
X85911600Y-57331049D01*
X85911600Y-57488951D01*
X85880795Y-57643818D01*
X85820369Y-57789700D01*
X85732644Y-57920990D01*
X85620990Y-58032644D01*
X85489700Y-58120369D01*
X85343818Y-58180795D01*
X85266385Y-58196197D01*
X85188952Y-58211600D01*
X85031048Y-58211600D01*
X84953615Y-58196197D01*
X84876182Y-58180795D01*
X84730300Y-58120369D01*
X84599010Y-58032644D01*
X84487356Y-57920990D01*
X84399631Y-57789700D01*
X84339205Y-57643818D01*
X84308400Y-57488951D01*
X84308400Y-57331049D01*
X84320194Y-57271759D01*
X84339205Y-57176183D01*
X84344710Y-57162892D01*
X84399631Y-57030300D01*
X84487356Y-56899010D01*
X84599010Y-56787356D01*
X84730300Y-56699631D01*
X84876182Y-56639205D01*
X84953615Y-56623803D01*
X85031048Y-56608400D01*
X85188952Y-56608400D01*
X85266385Y-56623803D01*
X85266385Y-56623803D01*
G37*
G36*
X111357196Y-50296063D02*
G01*
X111867054Y-50507253D01*
X111969016Y-50575382D01*
X112325916Y-50813855D01*
X112716145Y-51204084D01*
X112919687Y-51508706D01*
X113022747Y-51662946D01*
X113233937Y-52172804D01*
X113341600Y-52714065D01*
X113341600Y-53265935D01*
X113233937Y-53807196D01*
X113022747Y-54317054D01*
X113022746Y-54317055D01*
X112716145Y-54775916D01*
X112325916Y-55166145D01*
X112196531Y-55252597D01*
X111867054Y-55472747D01*
X111357196Y-55683937D01*
X110815935Y-55791600D01*
X110264065Y-55791600D01*
X109722804Y-55683937D01*
X109212946Y-55472747D01*
X108883469Y-55252597D01*
X108754084Y-55166145D01*
X108363855Y-54775916D01*
X108057254Y-54317055D01*
X108057253Y-54317054D01*
X107846063Y-53807196D01*
X107738400Y-53265935D01*
X107738400Y-52714065D01*
X107846063Y-52172804D01*
X108057253Y-51662946D01*
X108160313Y-51508706D01*
X108363855Y-51204084D01*
X108754084Y-50813855D01*
X109110984Y-50575382D01*
X109212946Y-50507253D01*
X109722804Y-50296063D01*
X110264065Y-50188400D01*
X110815935Y-50188400D01*
X111357196Y-50296063D01*
X111357196Y-50296063D01*
G37*
G36*
X88567196Y-50296063D02*
G01*
X89077054Y-50507253D01*
X89179016Y-50575382D01*
X89535916Y-50813855D01*
X89926145Y-51204084D01*
X90129687Y-51508706D01*
X90232747Y-51662946D01*
X90443937Y-52172804D01*
X90551600Y-52714065D01*
X90551600Y-53265935D01*
X90443937Y-53807196D01*
X90232747Y-54317054D01*
X90232746Y-54317055D01*
X89926145Y-54775916D01*
X89535916Y-55166145D01*
X89406531Y-55252597D01*
X89077054Y-55472747D01*
X88567196Y-55683937D01*
X88025935Y-55791600D01*
X87474065Y-55791600D01*
X86932804Y-55683937D01*
X86422946Y-55472747D01*
X86093469Y-55252597D01*
X85964084Y-55166145D01*
X85573855Y-54775916D01*
X85267254Y-54317055D01*
X85267253Y-54317054D01*
X85056063Y-53807196D01*
X84948400Y-53265935D01*
X84948400Y-52714065D01*
X85056063Y-52172804D01*
X85267253Y-51662946D01*
X85370313Y-51508706D01*
X85573855Y-51204084D01*
X85964084Y-50813855D01*
X86320984Y-50575382D01*
X86422946Y-50507253D01*
X86932804Y-50296063D01*
X87474065Y-50188400D01*
X88025935Y-50188400D01*
X88567196Y-50296063D01*
X88567196Y-50296063D01*
G37*
M02*
