G04 #@! TF.GenerationSoftware,KiCad,Pcbnew,5.1.4*
G04 #@! TF.CreationDate,2019-10-17T14:18:33+11:00*
G04 #@! TF.ProjectId,fabulouspide,66616275-6c6f-4757-9370-6964652e6b69,rev?*
G04 #@! TF.SameCoordinates,Original*
G04 #@! TF.FileFunction,Soldermask,Top*
G04 #@! TF.FilePolarity,Negative*
%FSLAX46Y46*%
G04 Gerber Fmt 4.6, Leading zero omitted, Abs format (unit mm)*
G04 Created by KiCad (PCBNEW 5.1.4) date 2019-10-17 14:18:33*
%MOMM*%
%LPD*%
G04 APERTURE LIST*
%ADD10C,0.100000*%
G04 APERTURE END LIST*
D10*
G36*
X111357196Y-68201063D02*
G01*
X111867054Y-68412253D01*
X111969016Y-68480382D01*
X112325916Y-68718855D01*
X112716145Y-69109084D01*
X112919687Y-69413706D01*
X113022747Y-69567946D01*
X113233937Y-70077804D01*
X113341600Y-70619065D01*
X113341600Y-71170935D01*
X113233937Y-71712196D01*
X113022747Y-72222054D01*
X113022746Y-72222055D01*
X112716145Y-72680916D01*
X112325916Y-73071145D01*
X112196531Y-73157597D01*
X111867054Y-73377747D01*
X111357196Y-73588937D01*
X110815935Y-73696600D01*
X110264065Y-73696600D01*
X109722804Y-73588937D01*
X109212946Y-73377747D01*
X108883469Y-73157597D01*
X108754084Y-73071145D01*
X108363855Y-72680916D01*
X108057254Y-72222055D01*
X108057253Y-72222054D01*
X107846063Y-71712196D01*
X107738400Y-71170935D01*
X107738400Y-70619065D01*
X107846063Y-70077804D01*
X108057253Y-69567946D01*
X108160313Y-69413706D01*
X108363855Y-69109084D01*
X108754084Y-68718855D01*
X109110984Y-68480382D01*
X109212946Y-68412253D01*
X109722804Y-68201063D01*
X110264065Y-68093400D01*
X110815935Y-68093400D01*
X111357196Y-68201063D01*
X111357196Y-68201063D01*
G37*
G36*
X88567196Y-68201063D02*
G01*
X89077054Y-68412253D01*
X89179016Y-68480382D01*
X89535916Y-68718855D01*
X89926145Y-69109084D01*
X90129687Y-69413706D01*
X90232747Y-69567946D01*
X90443937Y-70077804D01*
X90551600Y-70619065D01*
X90551600Y-71170935D01*
X90443937Y-71712196D01*
X90232747Y-72222054D01*
X90232746Y-72222055D01*
X89926145Y-72680916D01*
X89535916Y-73071145D01*
X89406531Y-73157597D01*
X89077054Y-73377747D01*
X88567196Y-73588937D01*
X88025935Y-73696600D01*
X87474065Y-73696600D01*
X86932804Y-73588937D01*
X86422946Y-73377747D01*
X86093469Y-73157597D01*
X85964084Y-73071145D01*
X85573855Y-72680916D01*
X85267254Y-72222055D01*
X85267253Y-72222054D01*
X85056063Y-71712196D01*
X84948400Y-71170935D01*
X84948400Y-70619065D01*
X85056063Y-70077804D01*
X85267253Y-69567946D01*
X85370313Y-69413706D01*
X85573855Y-69109084D01*
X85964084Y-68718855D01*
X86320984Y-68480382D01*
X86422946Y-68412253D01*
X86932804Y-68201063D01*
X87474065Y-68093400D01*
X88025935Y-68093400D01*
X88567196Y-68201063D01*
X88567196Y-68201063D01*
G37*
G36*
X97953346Y-71212990D02*
G01*
X98046546Y-71222169D01*
X98225923Y-71276583D01*
X98225926Y-71276584D01*
X98240956Y-71284618D01*
X98391238Y-71364945D01*
X98436259Y-71401893D01*
X98536139Y-71483861D01*
X98618107Y-71583741D01*
X98655055Y-71628762D01*
X98696556Y-71706406D01*
X98743416Y-71794074D01*
X98743417Y-71794077D01*
X98797831Y-71973454D01*
X98816204Y-72160000D01*
X98797831Y-72346546D01*
X98759410Y-72473202D01*
X98743416Y-72525926D01*
X98741034Y-72530382D01*
X98655055Y-72691238D01*
X98618107Y-72736259D01*
X98536139Y-72836139D01*
X98436259Y-72918107D01*
X98391238Y-72955055D01*
X98313594Y-72996556D01*
X98225926Y-73043416D01*
X98225923Y-73043417D01*
X98046546Y-73097831D01*
X97953346Y-73107010D01*
X97906747Y-73111600D01*
X97813253Y-73111600D01*
X97766654Y-73107010D01*
X97673454Y-73097831D01*
X97494077Y-73043417D01*
X97494074Y-73043416D01*
X97406406Y-72996556D01*
X97328762Y-72955055D01*
X97283741Y-72918107D01*
X97183861Y-72836139D01*
X97101893Y-72736259D01*
X97064945Y-72691238D01*
X96978966Y-72530382D01*
X96976584Y-72525926D01*
X96960590Y-72473202D01*
X96922169Y-72346546D01*
X96903796Y-72160000D01*
X96922169Y-71973454D01*
X96976583Y-71794077D01*
X96976584Y-71794074D01*
X97023444Y-71706406D01*
X97064945Y-71628762D01*
X97101893Y-71583741D01*
X97183861Y-71483861D01*
X97283741Y-71401893D01*
X97328762Y-71364945D01*
X97479044Y-71284618D01*
X97494074Y-71276584D01*
X97494077Y-71276583D01*
X97673454Y-71222169D01*
X97766654Y-71212990D01*
X97813253Y-71208400D01*
X97906747Y-71208400D01*
X97953346Y-71212990D01*
X97953346Y-71212990D01*
G37*
G36*
X95413346Y-71212990D02*
G01*
X95506546Y-71222169D01*
X95685923Y-71276583D01*
X95685926Y-71276584D01*
X95700956Y-71284618D01*
X95851238Y-71364945D01*
X95896259Y-71401893D01*
X95996139Y-71483861D01*
X96078107Y-71583741D01*
X96115055Y-71628762D01*
X96156556Y-71706406D01*
X96203416Y-71794074D01*
X96203417Y-71794077D01*
X96257831Y-71973454D01*
X96276204Y-72160000D01*
X96257831Y-72346546D01*
X96219410Y-72473202D01*
X96203416Y-72525926D01*
X96201034Y-72530382D01*
X96115055Y-72691238D01*
X96078107Y-72736259D01*
X95996139Y-72836139D01*
X95896259Y-72918107D01*
X95851238Y-72955055D01*
X95773594Y-72996556D01*
X95685926Y-73043416D01*
X95685923Y-73043417D01*
X95506546Y-73097831D01*
X95413346Y-73107010D01*
X95366747Y-73111600D01*
X95273253Y-73111600D01*
X95226654Y-73107010D01*
X95133454Y-73097831D01*
X94954077Y-73043417D01*
X94954074Y-73043416D01*
X94866406Y-72996556D01*
X94788762Y-72955055D01*
X94743741Y-72918107D01*
X94643861Y-72836139D01*
X94561893Y-72736259D01*
X94524945Y-72691238D01*
X94438966Y-72530382D01*
X94436584Y-72525926D01*
X94420590Y-72473202D01*
X94382169Y-72346546D01*
X94363796Y-72160000D01*
X94382169Y-71973454D01*
X94436583Y-71794077D01*
X94436584Y-71794074D01*
X94483444Y-71706406D01*
X94524945Y-71628762D01*
X94561893Y-71583741D01*
X94643861Y-71483861D01*
X94743741Y-71401893D01*
X94788762Y-71364945D01*
X94939044Y-71284618D01*
X94954074Y-71276584D01*
X94954077Y-71276583D01*
X95133454Y-71222169D01*
X95226654Y-71212990D01*
X95273253Y-71208400D01*
X95366747Y-71208400D01*
X95413346Y-71212990D01*
X95413346Y-71212990D01*
G37*
G36*
X92873346Y-71212990D02*
G01*
X92966546Y-71222169D01*
X93145923Y-71276583D01*
X93145926Y-71276584D01*
X93160956Y-71284618D01*
X93311238Y-71364945D01*
X93356259Y-71401893D01*
X93456139Y-71483861D01*
X93538107Y-71583741D01*
X93575055Y-71628762D01*
X93616556Y-71706406D01*
X93663416Y-71794074D01*
X93663417Y-71794077D01*
X93717831Y-71973454D01*
X93736204Y-72160000D01*
X93717831Y-72346546D01*
X93679410Y-72473202D01*
X93663416Y-72525926D01*
X93661034Y-72530382D01*
X93575055Y-72691238D01*
X93538107Y-72736259D01*
X93456139Y-72836139D01*
X93356259Y-72918107D01*
X93311238Y-72955055D01*
X93233594Y-72996556D01*
X93145926Y-73043416D01*
X93145923Y-73043417D01*
X92966546Y-73097831D01*
X92873346Y-73107010D01*
X92826747Y-73111600D01*
X92733253Y-73111600D01*
X92686654Y-73107010D01*
X92593454Y-73097831D01*
X92414077Y-73043417D01*
X92414074Y-73043416D01*
X92326406Y-72996556D01*
X92248762Y-72955055D01*
X92203741Y-72918107D01*
X92103861Y-72836139D01*
X92021893Y-72736259D01*
X91984945Y-72691238D01*
X91898966Y-72530382D01*
X91896584Y-72525926D01*
X91880590Y-72473202D01*
X91842169Y-72346546D01*
X91823796Y-72160000D01*
X91842169Y-71973454D01*
X91896583Y-71794077D01*
X91896584Y-71794074D01*
X91943444Y-71706406D01*
X91984945Y-71628762D01*
X92021893Y-71583741D01*
X92103861Y-71483861D01*
X92203741Y-71401893D01*
X92248762Y-71364945D01*
X92399044Y-71284618D01*
X92414074Y-71276584D01*
X92414077Y-71276583D01*
X92593454Y-71222169D01*
X92686654Y-71212990D01*
X92733253Y-71208400D01*
X92826747Y-71208400D01*
X92873346Y-71212990D01*
X92873346Y-71212990D01*
G37*
G36*
X100493346Y-71212990D02*
G01*
X100586546Y-71222169D01*
X100765923Y-71276583D01*
X100765926Y-71276584D01*
X100780956Y-71284618D01*
X100931238Y-71364945D01*
X100976259Y-71401893D01*
X101076139Y-71483861D01*
X101158107Y-71583741D01*
X101195055Y-71628762D01*
X101236556Y-71706406D01*
X101283416Y-71794074D01*
X101283417Y-71794077D01*
X101337831Y-71973454D01*
X101356204Y-72160000D01*
X101337831Y-72346546D01*
X101299410Y-72473202D01*
X101283416Y-72525926D01*
X101281034Y-72530382D01*
X101195055Y-72691238D01*
X101158107Y-72736259D01*
X101076139Y-72836139D01*
X100976259Y-72918107D01*
X100931238Y-72955055D01*
X100853594Y-72996556D01*
X100765926Y-73043416D01*
X100765923Y-73043417D01*
X100586546Y-73097831D01*
X100493346Y-73107010D01*
X100446747Y-73111600D01*
X100353253Y-73111600D01*
X100306654Y-73107010D01*
X100213454Y-73097831D01*
X100034077Y-73043417D01*
X100034074Y-73043416D01*
X99946406Y-72996556D01*
X99868762Y-72955055D01*
X99823741Y-72918107D01*
X99723861Y-72836139D01*
X99641893Y-72736259D01*
X99604945Y-72691238D01*
X99518966Y-72530382D01*
X99516584Y-72525926D01*
X99500590Y-72473202D01*
X99462169Y-72346546D01*
X99443796Y-72160000D01*
X99462169Y-71973454D01*
X99516583Y-71794077D01*
X99516584Y-71794074D01*
X99563444Y-71706406D01*
X99604945Y-71628762D01*
X99641893Y-71583741D01*
X99723861Y-71483861D01*
X99823741Y-71401893D01*
X99868762Y-71364945D01*
X100019044Y-71284618D01*
X100034074Y-71276584D01*
X100034077Y-71276583D01*
X100213454Y-71222169D01*
X100306654Y-71212990D01*
X100353253Y-71208400D01*
X100446747Y-71208400D01*
X100493346Y-71212990D01*
X100493346Y-71212990D01*
G37*
G36*
X103033346Y-71212990D02*
G01*
X103126546Y-71222169D01*
X103305923Y-71276583D01*
X103305926Y-71276584D01*
X103320956Y-71284618D01*
X103471238Y-71364945D01*
X103516259Y-71401893D01*
X103616139Y-71483861D01*
X103698107Y-71583741D01*
X103735055Y-71628762D01*
X103776556Y-71706406D01*
X103823416Y-71794074D01*
X103823417Y-71794077D01*
X103877831Y-71973454D01*
X103896204Y-72160000D01*
X103877831Y-72346546D01*
X103839410Y-72473202D01*
X103823416Y-72525926D01*
X103821034Y-72530382D01*
X103735055Y-72691238D01*
X103698107Y-72736259D01*
X103616139Y-72836139D01*
X103516259Y-72918107D01*
X103471238Y-72955055D01*
X103393594Y-72996556D01*
X103305926Y-73043416D01*
X103305923Y-73043417D01*
X103126546Y-73097831D01*
X103033346Y-73107010D01*
X102986747Y-73111600D01*
X102893253Y-73111600D01*
X102846654Y-73107010D01*
X102753454Y-73097831D01*
X102574077Y-73043417D01*
X102574074Y-73043416D01*
X102486406Y-72996556D01*
X102408762Y-72955055D01*
X102363741Y-72918107D01*
X102263861Y-72836139D01*
X102181893Y-72736259D01*
X102144945Y-72691238D01*
X102058966Y-72530382D01*
X102056584Y-72525926D01*
X102040590Y-72473202D01*
X102002169Y-72346546D01*
X101983796Y-72160000D01*
X102002169Y-71973454D01*
X102056583Y-71794077D01*
X102056584Y-71794074D01*
X102103444Y-71706406D01*
X102144945Y-71628762D01*
X102181893Y-71583741D01*
X102263861Y-71483861D01*
X102363741Y-71401893D01*
X102408762Y-71364945D01*
X102559044Y-71284618D01*
X102574074Y-71276584D01*
X102574077Y-71276583D01*
X102753454Y-71222169D01*
X102846654Y-71212990D01*
X102893253Y-71208400D01*
X102986747Y-71208400D01*
X103033346Y-71212990D01*
X103033346Y-71212990D01*
G37*
G36*
X105573346Y-71212990D02*
G01*
X105666546Y-71222169D01*
X105845923Y-71276583D01*
X105845926Y-71276584D01*
X105860956Y-71284618D01*
X106011238Y-71364945D01*
X106056259Y-71401893D01*
X106156139Y-71483861D01*
X106238107Y-71583741D01*
X106275055Y-71628762D01*
X106316556Y-71706406D01*
X106363416Y-71794074D01*
X106363417Y-71794077D01*
X106417831Y-71973454D01*
X106436204Y-72160000D01*
X106417831Y-72346546D01*
X106379410Y-72473202D01*
X106363416Y-72525926D01*
X106361034Y-72530382D01*
X106275055Y-72691238D01*
X106238107Y-72736259D01*
X106156139Y-72836139D01*
X106056259Y-72918107D01*
X106011238Y-72955055D01*
X105933594Y-72996556D01*
X105845926Y-73043416D01*
X105845923Y-73043417D01*
X105666546Y-73097831D01*
X105573346Y-73107010D01*
X105526747Y-73111600D01*
X105433253Y-73111600D01*
X105386654Y-73107010D01*
X105293454Y-73097831D01*
X105114077Y-73043417D01*
X105114074Y-73043416D01*
X105026406Y-72996556D01*
X104948762Y-72955055D01*
X104903741Y-72918107D01*
X104803861Y-72836139D01*
X104721893Y-72736259D01*
X104684945Y-72691238D01*
X104598966Y-72530382D01*
X104596584Y-72525926D01*
X104580590Y-72473202D01*
X104542169Y-72346546D01*
X104523796Y-72160000D01*
X104542169Y-71973454D01*
X104596583Y-71794077D01*
X104596584Y-71794074D01*
X104643444Y-71706406D01*
X104684945Y-71628762D01*
X104721893Y-71583741D01*
X104803861Y-71483861D01*
X104903741Y-71401893D01*
X104948762Y-71364945D01*
X105099044Y-71284618D01*
X105114074Y-71276584D01*
X105114077Y-71276583D01*
X105293454Y-71222169D01*
X105386654Y-71212990D01*
X105433253Y-71208400D01*
X105526747Y-71208400D01*
X105573346Y-71212990D01*
X105573346Y-71212990D01*
G37*
G36*
X103033346Y-68672990D02*
G01*
X103126546Y-68682169D01*
X103305923Y-68736583D01*
X103305926Y-68736584D01*
X103393594Y-68783444D01*
X103471238Y-68824945D01*
X103516259Y-68861893D01*
X103616139Y-68943861D01*
X103675596Y-69016311D01*
X103735055Y-69088762D01*
X103764237Y-69143358D01*
X103823416Y-69254074D01*
X103823417Y-69254077D01*
X103877831Y-69433454D01*
X103896204Y-69620000D01*
X103877831Y-69806546D01*
X103829852Y-69964709D01*
X103823416Y-69985926D01*
X103776556Y-70073594D01*
X103735055Y-70151238D01*
X103698107Y-70196259D01*
X103616139Y-70296139D01*
X103516259Y-70378107D01*
X103471238Y-70415055D01*
X103404947Y-70450488D01*
X103305926Y-70503416D01*
X103305923Y-70503417D01*
X103126546Y-70557831D01*
X103033346Y-70567010D01*
X102986747Y-70571600D01*
X102893253Y-70571600D01*
X102846654Y-70567010D01*
X102753454Y-70557831D01*
X102574077Y-70503417D01*
X102574074Y-70503416D01*
X102475053Y-70450488D01*
X102408762Y-70415055D01*
X102363741Y-70378107D01*
X102263861Y-70296139D01*
X102181893Y-70196259D01*
X102144945Y-70151238D01*
X102103444Y-70073594D01*
X102056584Y-69985926D01*
X102050148Y-69964709D01*
X102002169Y-69806546D01*
X101983796Y-69620000D01*
X102002169Y-69433454D01*
X102056583Y-69254077D01*
X102056584Y-69254074D01*
X102115763Y-69143358D01*
X102144945Y-69088762D01*
X102204404Y-69016311D01*
X102263861Y-68943861D01*
X102363741Y-68861893D01*
X102408762Y-68824945D01*
X102486406Y-68783444D01*
X102574074Y-68736584D01*
X102574077Y-68736583D01*
X102753454Y-68682169D01*
X102846654Y-68672990D01*
X102893253Y-68668400D01*
X102986747Y-68668400D01*
X103033346Y-68672990D01*
X103033346Y-68672990D01*
G37*
G36*
X100493346Y-68672990D02*
G01*
X100586546Y-68682169D01*
X100765923Y-68736583D01*
X100765926Y-68736584D01*
X100853594Y-68783444D01*
X100931238Y-68824945D01*
X100976259Y-68861893D01*
X101076139Y-68943861D01*
X101135596Y-69016311D01*
X101195055Y-69088762D01*
X101224237Y-69143358D01*
X101283416Y-69254074D01*
X101283417Y-69254077D01*
X101337831Y-69433454D01*
X101356204Y-69620000D01*
X101337831Y-69806546D01*
X101289852Y-69964709D01*
X101283416Y-69985926D01*
X101236556Y-70073594D01*
X101195055Y-70151238D01*
X101158107Y-70196259D01*
X101076139Y-70296139D01*
X100976259Y-70378107D01*
X100931238Y-70415055D01*
X100864947Y-70450488D01*
X100765926Y-70503416D01*
X100765923Y-70503417D01*
X100586546Y-70557831D01*
X100493346Y-70567010D01*
X100446747Y-70571600D01*
X100353253Y-70571600D01*
X100306654Y-70567010D01*
X100213454Y-70557831D01*
X100034077Y-70503417D01*
X100034074Y-70503416D01*
X99935053Y-70450488D01*
X99868762Y-70415055D01*
X99823741Y-70378107D01*
X99723861Y-70296139D01*
X99641893Y-70196259D01*
X99604945Y-70151238D01*
X99563444Y-70073594D01*
X99516584Y-69985926D01*
X99510148Y-69964709D01*
X99462169Y-69806546D01*
X99443796Y-69620000D01*
X99462169Y-69433454D01*
X99516583Y-69254077D01*
X99516584Y-69254074D01*
X99575763Y-69143358D01*
X99604945Y-69088762D01*
X99664404Y-69016311D01*
X99723861Y-68943861D01*
X99823741Y-68861893D01*
X99868762Y-68824945D01*
X99946406Y-68783444D01*
X100034074Y-68736584D01*
X100034077Y-68736583D01*
X100213454Y-68682169D01*
X100306654Y-68672990D01*
X100353253Y-68668400D01*
X100446747Y-68668400D01*
X100493346Y-68672990D01*
X100493346Y-68672990D01*
G37*
G36*
X97953346Y-68672990D02*
G01*
X98046546Y-68682169D01*
X98225923Y-68736583D01*
X98225926Y-68736584D01*
X98313594Y-68783444D01*
X98391238Y-68824945D01*
X98436259Y-68861893D01*
X98536139Y-68943861D01*
X98595596Y-69016311D01*
X98655055Y-69088762D01*
X98684237Y-69143358D01*
X98743416Y-69254074D01*
X98743417Y-69254077D01*
X98797831Y-69433454D01*
X98816204Y-69620000D01*
X98797831Y-69806546D01*
X98749852Y-69964709D01*
X98743416Y-69985926D01*
X98696556Y-70073594D01*
X98655055Y-70151238D01*
X98618107Y-70196259D01*
X98536139Y-70296139D01*
X98436259Y-70378107D01*
X98391238Y-70415055D01*
X98324947Y-70450488D01*
X98225926Y-70503416D01*
X98225923Y-70503417D01*
X98046546Y-70557831D01*
X97953346Y-70567010D01*
X97906747Y-70571600D01*
X97813253Y-70571600D01*
X97766654Y-70567010D01*
X97673454Y-70557831D01*
X97494077Y-70503417D01*
X97494074Y-70503416D01*
X97395053Y-70450488D01*
X97328762Y-70415055D01*
X97283741Y-70378107D01*
X97183861Y-70296139D01*
X97101893Y-70196259D01*
X97064945Y-70151238D01*
X97023444Y-70073594D01*
X96976584Y-69985926D01*
X96970148Y-69964709D01*
X96922169Y-69806546D01*
X96903796Y-69620000D01*
X96922169Y-69433454D01*
X96976583Y-69254077D01*
X96976584Y-69254074D01*
X97035763Y-69143358D01*
X97064945Y-69088762D01*
X97124404Y-69016311D01*
X97183861Y-68943861D01*
X97283741Y-68861893D01*
X97328762Y-68824945D01*
X97406406Y-68783444D01*
X97494074Y-68736584D01*
X97494077Y-68736583D01*
X97673454Y-68682169D01*
X97766654Y-68672990D01*
X97813253Y-68668400D01*
X97906747Y-68668400D01*
X97953346Y-68672990D01*
X97953346Y-68672990D01*
G37*
G36*
X95413346Y-68672990D02*
G01*
X95506546Y-68682169D01*
X95685923Y-68736583D01*
X95685926Y-68736584D01*
X95773594Y-68783444D01*
X95851238Y-68824945D01*
X95896259Y-68861893D01*
X95996139Y-68943861D01*
X96055596Y-69016311D01*
X96115055Y-69088762D01*
X96144237Y-69143358D01*
X96203416Y-69254074D01*
X96203417Y-69254077D01*
X96257831Y-69433454D01*
X96276204Y-69620000D01*
X96257831Y-69806546D01*
X96209852Y-69964709D01*
X96203416Y-69985926D01*
X96156556Y-70073594D01*
X96115055Y-70151238D01*
X96078107Y-70196259D01*
X95996139Y-70296139D01*
X95896259Y-70378107D01*
X95851238Y-70415055D01*
X95784947Y-70450488D01*
X95685926Y-70503416D01*
X95685923Y-70503417D01*
X95506546Y-70557831D01*
X95413346Y-70567010D01*
X95366747Y-70571600D01*
X95273253Y-70571600D01*
X95226654Y-70567010D01*
X95133454Y-70557831D01*
X94954077Y-70503417D01*
X94954074Y-70503416D01*
X94855053Y-70450488D01*
X94788762Y-70415055D01*
X94743741Y-70378107D01*
X94643861Y-70296139D01*
X94561893Y-70196259D01*
X94524945Y-70151238D01*
X94483444Y-70073594D01*
X94436584Y-69985926D01*
X94430148Y-69964709D01*
X94382169Y-69806546D01*
X94363796Y-69620000D01*
X94382169Y-69433454D01*
X94436583Y-69254077D01*
X94436584Y-69254074D01*
X94495763Y-69143358D01*
X94524945Y-69088762D01*
X94584404Y-69016311D01*
X94643861Y-68943861D01*
X94743741Y-68861893D01*
X94788762Y-68824945D01*
X94866406Y-68783444D01*
X94954074Y-68736584D01*
X94954077Y-68736583D01*
X95133454Y-68682169D01*
X95226654Y-68672990D01*
X95273253Y-68668400D01*
X95366747Y-68668400D01*
X95413346Y-68672990D01*
X95413346Y-68672990D01*
G37*
G36*
X106431600Y-70571600D02*
G01*
X104528400Y-70571600D01*
X104528400Y-68668400D01*
X106431600Y-68668400D01*
X106431600Y-70571600D01*
X106431600Y-70571600D01*
G37*
G36*
X92873346Y-68672990D02*
G01*
X92966546Y-68682169D01*
X93145923Y-68736583D01*
X93145926Y-68736584D01*
X93233594Y-68783444D01*
X93311238Y-68824945D01*
X93356259Y-68861893D01*
X93456139Y-68943861D01*
X93515596Y-69016311D01*
X93575055Y-69088762D01*
X93604237Y-69143358D01*
X93663416Y-69254074D01*
X93663417Y-69254077D01*
X93717831Y-69433454D01*
X93736204Y-69620000D01*
X93717831Y-69806546D01*
X93669852Y-69964709D01*
X93663416Y-69985926D01*
X93616556Y-70073594D01*
X93575055Y-70151238D01*
X93538107Y-70196259D01*
X93456139Y-70296139D01*
X93356259Y-70378107D01*
X93311238Y-70415055D01*
X93244947Y-70450488D01*
X93145926Y-70503416D01*
X93145923Y-70503417D01*
X92966546Y-70557831D01*
X92873346Y-70567010D01*
X92826747Y-70571600D01*
X92733253Y-70571600D01*
X92686654Y-70567010D01*
X92593454Y-70557831D01*
X92414077Y-70503417D01*
X92414074Y-70503416D01*
X92315053Y-70450488D01*
X92248762Y-70415055D01*
X92203741Y-70378107D01*
X92103861Y-70296139D01*
X92021893Y-70196259D01*
X91984945Y-70151238D01*
X91943444Y-70073594D01*
X91896584Y-69985926D01*
X91890148Y-69964709D01*
X91842169Y-69806546D01*
X91823796Y-69620000D01*
X91842169Y-69433454D01*
X91896583Y-69254077D01*
X91896584Y-69254074D01*
X91955763Y-69143358D01*
X91984945Y-69088762D01*
X92044404Y-69016311D01*
X92103861Y-68943861D01*
X92203741Y-68861893D01*
X92248762Y-68824945D01*
X92326406Y-68783444D01*
X92414074Y-68736584D01*
X92414077Y-68736583D01*
X92593454Y-68682169D01*
X92686654Y-68672990D01*
X92733253Y-68668400D01*
X92826747Y-68668400D01*
X92873346Y-68672990D01*
X92873346Y-68672990D01*
G37*
G36*
X102651980Y-67593720D02*
G01*
X101548780Y-67593720D01*
X101548780Y-66890520D01*
X102651980Y-66890520D01*
X102651980Y-67593720D01*
X102651980Y-67593720D01*
G37*
G36*
X105649180Y-67593720D02*
G01*
X104545980Y-67593720D01*
X104545980Y-66890520D01*
X105649180Y-66890520D01*
X105649180Y-67593720D01*
X105649180Y-67593720D01*
G37*
G36*
X95192000Y-67590480D02*
G01*
X94088800Y-67590480D01*
X94088800Y-66887280D01*
X95192000Y-66887280D01*
X95192000Y-67590480D01*
X95192000Y-67590480D01*
G37*
G36*
X101153380Y-67588640D02*
G01*
X100050180Y-67588640D01*
X100050180Y-66885440D01*
X101153380Y-66885440D01*
X101153380Y-67588640D01*
X101153380Y-67588640D01*
G37*
G36*
X99664940Y-67587940D02*
G01*
X98561740Y-67587940D01*
X98561740Y-66884740D01*
X99664940Y-66884740D01*
X99664940Y-67587940D01*
X99664940Y-67587940D01*
G37*
G36*
X104150580Y-67587940D02*
G01*
X103047380Y-67587940D01*
X103047380Y-66884740D01*
X104150580Y-66884740D01*
X104150580Y-67587940D01*
X104150580Y-67587940D01*
G37*
G36*
X98168880Y-67586800D02*
G01*
X97065680Y-67586800D01*
X97065680Y-66883600D01*
X98168880Y-66883600D01*
X98168880Y-67586800D01*
X98168880Y-67586800D01*
G37*
G36*
X96677900Y-67584260D02*
G01*
X95574700Y-67584260D01*
X95574700Y-66881060D01*
X96677900Y-66881060D01*
X96677900Y-67584260D01*
X96677900Y-67584260D01*
G37*
G36*
X85266385Y-65603803D02*
G01*
X85343818Y-65619205D01*
X85489700Y-65679631D01*
X85620990Y-65767356D01*
X85732644Y-65879010D01*
X85820369Y-66010300D01*
X85880795Y-66156182D01*
X85880795Y-66156183D01*
X85911600Y-66311048D01*
X85911600Y-66468952D01*
X85896197Y-66546385D01*
X85880795Y-66623818D01*
X85820369Y-66769700D01*
X85732644Y-66900990D01*
X85620990Y-67012644D01*
X85489700Y-67100369D01*
X85343818Y-67160795D01*
X85266385Y-67176197D01*
X85188952Y-67191600D01*
X85031048Y-67191600D01*
X84953615Y-67176197D01*
X84876182Y-67160795D01*
X84730300Y-67100369D01*
X84599010Y-67012644D01*
X84487356Y-66900990D01*
X84399631Y-66769700D01*
X84339205Y-66623818D01*
X84323803Y-66546385D01*
X84308400Y-66468952D01*
X84308400Y-66311048D01*
X84339205Y-66156183D01*
X84339205Y-66156182D01*
X84399631Y-66010300D01*
X84487356Y-65879010D01*
X84599010Y-65767356D01*
X84730300Y-65679631D01*
X84876182Y-65619205D01*
X84953615Y-65603803D01*
X85031048Y-65588400D01*
X85188952Y-65588400D01*
X85266385Y-65603803D01*
X85266385Y-65603803D01*
G37*
G36*
X91279960Y-57016840D02*
G01*
X91287984Y-57018436D01*
X91430227Y-57077355D01*
X91494669Y-57120414D01*
X91558240Y-57162891D01*
X91667109Y-57271760D01*
X91752646Y-57399775D01*
X91811564Y-57542016D01*
X91841600Y-57693018D01*
X91841600Y-57715715D01*
X91844002Y-57740101D01*
X91851115Y-57763550D01*
X91862666Y-57785161D01*
X91878211Y-57804103D01*
X91897153Y-57819648D01*
X91918764Y-57831199D01*
X91942213Y-57838312D01*
X91966599Y-57840714D01*
X91990985Y-57838312D01*
X92014434Y-57831199D01*
X92036037Y-57819652D01*
X92048719Y-57811178D01*
X92149104Y-57769598D01*
X92149105Y-57769598D01*
X92149107Y-57769597D01*
X92255671Y-57748400D01*
X92364329Y-57748400D01*
X92470893Y-57769597D01*
X92470895Y-57769598D01*
X92470896Y-57769598D01*
X92571281Y-57811178D01*
X92661625Y-57871544D01*
X92738456Y-57948375D01*
X92798822Y-58038719D01*
X92832642Y-58120369D01*
X92840403Y-58139107D01*
X92861600Y-58245671D01*
X92861600Y-58354329D01*
X92841783Y-58453956D01*
X92840402Y-58460896D01*
X92798822Y-58561281D01*
X92738456Y-58651625D01*
X92705062Y-58685019D01*
X92689522Y-58703955D01*
X92677971Y-58725566D01*
X92670858Y-58749015D01*
X92668456Y-58773401D01*
X92670858Y-58797787D01*
X92677971Y-58821236D01*
X92689522Y-58842847D01*
X92705067Y-58861789D01*
X92724009Y-58877334D01*
X92745620Y-58888885D01*
X92769069Y-58895998D01*
X92793455Y-58898400D01*
X93421600Y-58898400D01*
X93421600Y-64901600D01*
X92793455Y-64901600D01*
X92769069Y-64904002D01*
X92745620Y-64911115D01*
X92724009Y-64922666D01*
X92705067Y-64938211D01*
X92689522Y-64957153D01*
X92677971Y-64978764D01*
X92670858Y-65002213D01*
X92668456Y-65026599D01*
X92670858Y-65050985D01*
X92677971Y-65074434D01*
X92689522Y-65096045D01*
X92705062Y-65114981D01*
X92738456Y-65148375D01*
X92798822Y-65238719D01*
X92840402Y-65339104D01*
X92840403Y-65339107D01*
X92861600Y-65445671D01*
X92861600Y-65554329D01*
X92840626Y-65659773D01*
X92840402Y-65660896D01*
X92798822Y-65761281D01*
X92738456Y-65851625D01*
X92661625Y-65928456D01*
X92571281Y-65988822D01*
X92470896Y-66030402D01*
X92470895Y-66030402D01*
X92470893Y-66030403D01*
X92364329Y-66051600D01*
X92255671Y-66051600D01*
X92149107Y-66030403D01*
X92149105Y-66030402D01*
X92149104Y-66030402D01*
X92048719Y-65988822D01*
X92036037Y-65980348D01*
X92014435Y-65968802D01*
X91990986Y-65961688D01*
X91966600Y-65959286D01*
X91942214Y-65961688D01*
X91918765Y-65968800D01*
X91897154Y-65980351D01*
X91878212Y-65995896D01*
X91862667Y-66014838D01*
X91851116Y-66036449D01*
X91844002Y-66059898D01*
X91841600Y-66084285D01*
X91841600Y-66106982D01*
X91831813Y-66156183D01*
X91811564Y-66257984D01*
X91752645Y-66400227D01*
X91667108Y-66528241D01*
X91558241Y-66637108D01*
X91430227Y-66722645D01*
X91430226Y-66722646D01*
X91430225Y-66722646D01*
X91287984Y-66781564D01*
X91136982Y-66811600D01*
X90983018Y-66811600D01*
X90832016Y-66781564D01*
X90689775Y-66722646D01*
X90689774Y-66722646D01*
X90689773Y-66722645D01*
X90561759Y-66637108D01*
X90452892Y-66528241D01*
X90367355Y-66400227D01*
X90308436Y-66257984D01*
X90288187Y-66156183D01*
X90278400Y-66106982D01*
X90278400Y-65953018D01*
X90308436Y-65802016D01*
X90367354Y-65659775D01*
X90452891Y-65531760D01*
X90561760Y-65422891D01*
X90687151Y-65339107D01*
X90689773Y-65337355D01*
X90832016Y-65278436D01*
X90851100Y-65274640D01*
X90983018Y-65248400D01*
X91136982Y-65248400D01*
X91268900Y-65274640D01*
X91287984Y-65278436D01*
X91430227Y-65337355D01*
X91432849Y-65339107D01*
X91558240Y-65422891D01*
X91563609Y-65428260D01*
X91582551Y-65443805D01*
X91604162Y-65455356D01*
X91627611Y-65462469D01*
X91651997Y-65464871D01*
X91676383Y-65462469D01*
X91699832Y-65455356D01*
X91721443Y-65443805D01*
X91740385Y-65428260D01*
X91755930Y-65409318D01*
X91767481Y-65387707D01*
X91774594Y-65364257D01*
X91779596Y-65339107D01*
X91806299Y-65274642D01*
X91821178Y-65238719D01*
X91881544Y-65148375D01*
X91958375Y-65071544D01*
X92048719Y-65011178D01*
X92149104Y-64969598D01*
X92149105Y-64969598D01*
X92149107Y-64969597D01*
X92255671Y-64948400D01*
X92364330Y-64948400D01*
X92369016Y-64949332D01*
X92393402Y-64951734D01*
X92417788Y-64949332D01*
X92441237Y-64942219D01*
X92462848Y-64930667D01*
X92481789Y-64915122D01*
X92497335Y-64896180D01*
X92508885Y-64874569D01*
X92515998Y-64851120D01*
X92518400Y-64826735D01*
X92518400Y-58973265D01*
X92515998Y-58948879D01*
X92508885Y-58925430D01*
X92497334Y-58903819D01*
X92481789Y-58884877D01*
X92462847Y-58869332D01*
X92441236Y-58857781D01*
X92417787Y-58850668D01*
X92393401Y-58848266D01*
X92369016Y-58850668D01*
X92364330Y-58851600D01*
X92255671Y-58851600D01*
X92149107Y-58830403D01*
X92149105Y-58830402D01*
X92149104Y-58830402D01*
X92048719Y-58788822D01*
X91958375Y-58728456D01*
X91934981Y-58705062D01*
X91916045Y-58689522D01*
X91894434Y-58677971D01*
X91870985Y-58670858D01*
X91846599Y-58668456D01*
X91822213Y-58670858D01*
X91798764Y-58677971D01*
X91777153Y-58689522D01*
X91758211Y-58705067D01*
X91742666Y-58724009D01*
X91731115Y-58745620D01*
X91724002Y-58769069D01*
X91721600Y-58793455D01*
X91721600Y-64651600D01*
X90818400Y-64651600D01*
X90818400Y-58599446D01*
X90815998Y-58575060D01*
X90808885Y-58551611D01*
X90797334Y-58530000D01*
X90791919Y-58523401D01*
X91439293Y-58523401D01*
X91441695Y-58547787D01*
X91448808Y-58571236D01*
X91460359Y-58592847D01*
X91475905Y-58611789D01*
X91494847Y-58627334D01*
X91516457Y-58638885D01*
X91539906Y-58645998D01*
X91564292Y-58648400D01*
X91670190Y-58648400D01*
X91694576Y-58645998D01*
X91718025Y-58638885D01*
X91739636Y-58627334D01*
X91758578Y-58611789D01*
X91774123Y-58592847D01*
X91785674Y-58571236D01*
X91792787Y-58547787D01*
X91795189Y-58523401D01*
X91792787Y-58499015D01*
X91785674Y-58475565D01*
X91779596Y-58460893D01*
X91774594Y-58435743D01*
X91767481Y-58412294D01*
X91755930Y-58390683D01*
X91740385Y-58371741D01*
X91721444Y-58356196D01*
X91699833Y-58344644D01*
X91676384Y-58337531D01*
X91651998Y-58335129D01*
X91627612Y-58337531D01*
X91604163Y-58344644D01*
X91582552Y-58356195D01*
X91563609Y-58371740D01*
X91558239Y-58377110D01*
X91494846Y-58419468D01*
X91475904Y-58435014D01*
X91460359Y-58453956D01*
X91448808Y-58475566D01*
X91441695Y-58499015D01*
X91439293Y-58523401D01*
X90791919Y-58523401D01*
X90781789Y-58511058D01*
X90762847Y-58495513D01*
X90741236Y-58483962D01*
X90689775Y-58462646D01*
X90689774Y-58462646D01*
X90689773Y-58462645D01*
X90582075Y-58390683D01*
X90561760Y-58377109D01*
X90452891Y-58268240D01*
X90367354Y-58140225D01*
X90308436Y-57997984D01*
X90278400Y-57846982D01*
X90278400Y-57693018D01*
X90308436Y-57542016D01*
X90367354Y-57399775D01*
X90452891Y-57271760D01*
X90561760Y-57162891D01*
X90625331Y-57120414D01*
X90689773Y-57077355D01*
X90832016Y-57018436D01*
X90840040Y-57016840D01*
X90983018Y-56988400D01*
X91136982Y-56988400D01*
X91279960Y-57016840D01*
X91279960Y-57016840D01*
G37*
G36*
X110586328Y-62975948D02*
G01*
X110877800Y-63096680D01*
X110877802Y-63096681D01*
X110955205Y-63148400D01*
X111140120Y-63271956D01*
X111363204Y-63495040D01*
X111538480Y-63757360D01*
X111659212Y-64048832D01*
X111720760Y-64358255D01*
X111720760Y-64673745D01*
X111659212Y-64983168D01*
X111553360Y-65238716D01*
X111538479Y-65274642D01*
X111363204Y-65536960D01*
X111140120Y-65760044D01*
X110877802Y-65935319D01*
X110877801Y-65935320D01*
X110877800Y-65935320D01*
X110586328Y-66056052D01*
X110276905Y-66117600D01*
X109961415Y-66117600D01*
X109651992Y-66056052D01*
X109360520Y-65935320D01*
X109360519Y-65935320D01*
X109360518Y-65935319D01*
X109098200Y-65760044D01*
X108875116Y-65536960D01*
X108699841Y-65274642D01*
X108684960Y-65238716D01*
X108579108Y-64983168D01*
X108517560Y-64673745D01*
X108517560Y-64358255D01*
X108579108Y-64048832D01*
X108699840Y-63757360D01*
X108875116Y-63495040D01*
X109098200Y-63271956D01*
X109283115Y-63148400D01*
X109360518Y-63096681D01*
X109360520Y-63096680D01*
X109651992Y-62975948D01*
X109961415Y-62914400D01*
X110276905Y-62914400D01*
X110586328Y-62975948D01*
X110586328Y-62975948D01*
G37*
G36*
X102651980Y-66093720D02*
G01*
X101548780Y-66093720D01*
X101548780Y-65390520D01*
X102651980Y-65390520D01*
X102651980Y-66093720D01*
X102651980Y-66093720D01*
G37*
G36*
X105649180Y-66093720D02*
G01*
X104545980Y-66093720D01*
X104545980Y-65390520D01*
X105649180Y-65390520D01*
X105649180Y-66093720D01*
X105649180Y-66093720D01*
G37*
G36*
X95192000Y-66090480D02*
G01*
X94088800Y-66090480D01*
X94088800Y-65387280D01*
X95192000Y-65387280D01*
X95192000Y-66090480D01*
X95192000Y-66090480D01*
G37*
G36*
X101153380Y-66088640D02*
G01*
X100050180Y-66088640D01*
X100050180Y-65385440D01*
X101153380Y-65385440D01*
X101153380Y-66088640D01*
X101153380Y-66088640D01*
G37*
G36*
X104150580Y-66087940D02*
G01*
X103047380Y-66087940D01*
X103047380Y-65384740D01*
X104150580Y-65384740D01*
X104150580Y-66087940D01*
X104150580Y-66087940D01*
G37*
G36*
X99664940Y-66087940D02*
G01*
X98561740Y-66087940D01*
X98561740Y-65384740D01*
X99664940Y-65384740D01*
X99664940Y-66087940D01*
X99664940Y-66087940D01*
G37*
G36*
X98168880Y-66086800D02*
G01*
X97065680Y-66086800D01*
X97065680Y-65383600D01*
X98168880Y-65383600D01*
X98168880Y-66086800D01*
X98168880Y-66086800D01*
G37*
G36*
X96677900Y-66084260D02*
G01*
X95574700Y-66084260D01*
X95574700Y-65381060D01*
X96677900Y-65381060D01*
X96677900Y-66084260D01*
X96677900Y-66084260D01*
G37*
G36*
X98127760Y-63307380D02*
G01*
X97424560Y-63307380D01*
X97424560Y-62204180D01*
X98127760Y-62204180D01*
X98127760Y-63307380D01*
X98127760Y-63307380D01*
G37*
G36*
X96627760Y-63307380D02*
G01*
X95924560Y-63307380D01*
X95924560Y-62204180D01*
X96627760Y-62204180D01*
X96627760Y-63307380D01*
X96627760Y-63307380D01*
G37*
G36*
X102392420Y-63231180D02*
G01*
X101689220Y-63231180D01*
X101689220Y-62127980D01*
X102392420Y-62127980D01*
X102392420Y-63231180D01*
X102392420Y-63231180D01*
G37*
G36*
X100892420Y-63231180D02*
G01*
X100189220Y-63231180D01*
X100189220Y-62127980D01*
X100892420Y-62127980D01*
X100892420Y-63231180D01*
X100892420Y-63231180D01*
G37*
G36*
X99782540Y-57234101D02*
G01*
X99784942Y-57258487D01*
X99792055Y-57281936D01*
X99803606Y-57303547D01*
X99819151Y-57322489D01*
X99838093Y-57338034D01*
X99859704Y-57349585D01*
X99883153Y-57356698D01*
X99907539Y-57359100D01*
X100757540Y-57359100D01*
X100757540Y-60362300D01*
X99907539Y-60362300D01*
X99883153Y-60364702D01*
X99859704Y-60371815D01*
X99838093Y-60383366D01*
X99819151Y-60398911D01*
X99803606Y-60417853D01*
X99792055Y-60439464D01*
X99784942Y-60462913D01*
X99782540Y-60487299D01*
X99782540Y-61337300D01*
X96779340Y-61337300D01*
X96779340Y-60487299D01*
X96776938Y-60462913D01*
X96769825Y-60439464D01*
X96758274Y-60417853D01*
X96742729Y-60398911D01*
X96723787Y-60383366D01*
X96702176Y-60371815D01*
X96678727Y-60364702D01*
X96654341Y-60362300D01*
X95804340Y-60362300D01*
X95804340Y-57359100D01*
X96654341Y-57359100D01*
X96678727Y-57356698D01*
X96702176Y-57349585D01*
X96723787Y-57338034D01*
X96742729Y-57322489D01*
X96758274Y-57303547D01*
X96769825Y-57281936D01*
X96776938Y-57258487D01*
X96779340Y-57234101D01*
X96779340Y-56384100D01*
X99782540Y-56384100D01*
X99782540Y-57234101D01*
X99782540Y-57234101D01*
G37*
G36*
X95202960Y-61156260D02*
G01*
X94199760Y-61156260D01*
X94199760Y-60403060D01*
X95202960Y-60403060D01*
X95202960Y-61156260D01*
X95202960Y-61156260D01*
G37*
G36*
X111720760Y-61037600D02*
G01*
X108517560Y-61037600D01*
X108517560Y-57834400D01*
X111720760Y-57834400D01*
X111720760Y-61037600D01*
X111720760Y-61037600D01*
G37*
G36*
X95202960Y-59906260D02*
G01*
X94199760Y-59906260D01*
X94199760Y-58236440D01*
X95202960Y-58236440D01*
X95202960Y-59906260D01*
X95202960Y-59906260D01*
G37*
G36*
X101893180Y-59212900D02*
G01*
X101189980Y-59212900D01*
X101189980Y-58109700D01*
X101893180Y-58109700D01*
X101893180Y-59212900D01*
X101893180Y-59212900D01*
G37*
G36*
X103393180Y-59212900D02*
G01*
X102689980Y-59212900D01*
X102689980Y-58109700D01*
X103393180Y-58109700D01*
X103393180Y-59212900D01*
X103393180Y-59212900D01*
G37*
G36*
X85266385Y-56623803D02*
G01*
X85343818Y-56639205D01*
X85489700Y-56699631D01*
X85620990Y-56787356D01*
X85732644Y-56899010D01*
X85820369Y-57030300D01*
X85875290Y-57162892D01*
X85880795Y-57176183D01*
X85899807Y-57271759D01*
X85911600Y-57331049D01*
X85911600Y-57488951D01*
X85880795Y-57643818D01*
X85820369Y-57789700D01*
X85732644Y-57920990D01*
X85620990Y-58032644D01*
X85489700Y-58120369D01*
X85343818Y-58180795D01*
X85266385Y-58196197D01*
X85188952Y-58211600D01*
X85031048Y-58211600D01*
X84953615Y-58196197D01*
X84876182Y-58180795D01*
X84730300Y-58120369D01*
X84599010Y-58032644D01*
X84487356Y-57920990D01*
X84399631Y-57789700D01*
X84339205Y-57643818D01*
X84308400Y-57488951D01*
X84308400Y-57331049D01*
X84320194Y-57271759D01*
X84339205Y-57176183D01*
X84344710Y-57162892D01*
X84399631Y-57030300D01*
X84487356Y-56899010D01*
X84599010Y-56787356D01*
X84730300Y-56699631D01*
X84876182Y-56639205D01*
X84953615Y-56623803D01*
X85031048Y-56608400D01*
X85188952Y-56608400D01*
X85266385Y-56623803D01*
X85266385Y-56623803D01*
G37*
G36*
X105185560Y-57904460D02*
G01*
X104232360Y-57904460D01*
X104232360Y-56901260D01*
X105185560Y-56901260D01*
X105185560Y-57904460D01*
X105185560Y-57904460D01*
G37*
G36*
X95202960Y-57739640D02*
G01*
X94199760Y-57739640D01*
X94199760Y-56986440D01*
X95202960Y-56986440D01*
X95202960Y-57739640D01*
X95202960Y-57739640D01*
G37*
G36*
X103812760Y-57727660D02*
G01*
X102709560Y-57727660D01*
X102709560Y-57024460D01*
X103812760Y-57024460D01*
X103812760Y-57727660D01*
X103812760Y-57727660D01*
G37*
G36*
X102298920Y-57720040D02*
G01*
X101195720Y-57720040D01*
X101195720Y-57016840D01*
X102298920Y-57016840D01*
X102298920Y-57720040D01*
X102298920Y-57720040D01*
G37*
G36*
X107600480Y-56485740D02*
G01*
X106847280Y-56485740D01*
X106847280Y-55482540D01*
X107600480Y-55482540D01*
X107600480Y-56485740D01*
X107600480Y-56485740D01*
G37*
G36*
X106350480Y-56485740D02*
G01*
X105597280Y-56485740D01*
X105597280Y-55482540D01*
X106350480Y-55482540D01*
X106350480Y-56485740D01*
X106350480Y-56485740D01*
G37*
G36*
X105185560Y-56404460D02*
G01*
X104232360Y-56404460D01*
X104232360Y-55401260D01*
X105185560Y-55401260D01*
X105185560Y-56404460D01*
X105185560Y-56404460D01*
G37*
G36*
X103812760Y-56227660D02*
G01*
X102709560Y-56227660D01*
X102709560Y-55524460D01*
X103812760Y-55524460D01*
X103812760Y-56227660D01*
X103812760Y-56227660D01*
G37*
G36*
X102298920Y-56220040D02*
G01*
X101195720Y-56220040D01*
X101195720Y-55516840D01*
X102298920Y-55516840D01*
X102298920Y-56220040D01*
X102298920Y-56220040D01*
G37*
G36*
X88567196Y-50296063D02*
G01*
X89077054Y-50507253D01*
X89179016Y-50575382D01*
X89535916Y-50813855D01*
X89926145Y-51204084D01*
X90129687Y-51508706D01*
X90232747Y-51662946D01*
X90443937Y-52172804D01*
X90551600Y-52714065D01*
X90551600Y-53265935D01*
X90443937Y-53807196D01*
X90232747Y-54317054D01*
X90232746Y-54317055D01*
X89926145Y-54775916D01*
X89535916Y-55166145D01*
X89406531Y-55252597D01*
X89077054Y-55472747D01*
X88567196Y-55683937D01*
X88025935Y-55791600D01*
X87474065Y-55791600D01*
X86932804Y-55683937D01*
X86422946Y-55472747D01*
X86093469Y-55252597D01*
X85964084Y-55166145D01*
X85573855Y-54775916D01*
X85267254Y-54317055D01*
X85267253Y-54317054D01*
X85056063Y-53807196D01*
X84948400Y-53265935D01*
X84948400Y-52714065D01*
X85056063Y-52172804D01*
X85267253Y-51662946D01*
X85370313Y-51508706D01*
X85573855Y-51204084D01*
X85964084Y-50813855D01*
X86320984Y-50575382D01*
X86422946Y-50507253D01*
X86932804Y-50296063D01*
X87474065Y-50188400D01*
X88025935Y-50188400D01*
X88567196Y-50296063D01*
X88567196Y-50296063D01*
G37*
G36*
X111357196Y-50296063D02*
G01*
X111867054Y-50507253D01*
X111969016Y-50575382D01*
X112325916Y-50813855D01*
X112716145Y-51204084D01*
X112919687Y-51508706D01*
X113022747Y-51662946D01*
X113233937Y-52172804D01*
X113341600Y-52714065D01*
X113341600Y-53265935D01*
X113233937Y-53807196D01*
X113022747Y-54317054D01*
X113022746Y-54317055D01*
X112716145Y-54775916D01*
X112325916Y-55166145D01*
X112196531Y-55252597D01*
X111867054Y-55472747D01*
X111357196Y-55683937D01*
X110815935Y-55791600D01*
X110264065Y-55791600D01*
X109722804Y-55683937D01*
X109212946Y-55472747D01*
X108883469Y-55252597D01*
X108754084Y-55166145D01*
X108363855Y-54775916D01*
X108057254Y-54317055D01*
X108057253Y-54317054D01*
X107846063Y-53807196D01*
X107738400Y-53265935D01*
X107738400Y-52714065D01*
X107846063Y-52172804D01*
X108057253Y-51662946D01*
X108160313Y-51508706D01*
X108363855Y-51204084D01*
X108754084Y-50813855D01*
X109110984Y-50575382D01*
X109212946Y-50507253D01*
X109722804Y-50296063D01*
X110264065Y-50188400D01*
X110815935Y-50188400D01*
X111357196Y-50296063D01*
X111357196Y-50296063D01*
G37*
G36*
X93996460Y-55448880D02*
G01*
X92993260Y-55448880D01*
X92993260Y-54695680D01*
X93996460Y-54695680D01*
X93996460Y-55448880D01*
X93996460Y-55448880D01*
G37*
G36*
X95417540Y-55412300D02*
G01*
X94464340Y-55412300D01*
X94464340Y-54409100D01*
X95417540Y-54409100D01*
X95417540Y-55412300D01*
X95417540Y-55412300D01*
G37*
G36*
X99567540Y-55402300D02*
G01*
X98614340Y-55402300D01*
X98614340Y-54399100D01*
X99567540Y-54399100D01*
X99567540Y-55402300D01*
X99567540Y-55402300D01*
G37*
G36*
X98187540Y-55402300D02*
G01*
X97234340Y-55402300D01*
X97234340Y-54399100D01*
X98187540Y-54399100D01*
X98187540Y-55402300D01*
X98187540Y-55402300D01*
G37*
G36*
X96817540Y-55402300D02*
G01*
X95864340Y-55402300D01*
X95864340Y-54399100D01*
X96817540Y-54399100D01*
X96817540Y-55402300D01*
X96817540Y-55402300D01*
G37*
G36*
X102296380Y-55117940D02*
G01*
X101193180Y-55117940D01*
X101193180Y-54414740D01*
X102296380Y-54414740D01*
X102296380Y-55117940D01*
X102296380Y-55117940D01*
G37*
G36*
X105552350Y-51793046D02*
G01*
X105574153Y-51797399D01*
X105592510Y-51804933D01*
X105592567Y-51804971D01*
X105592575Y-51804974D01*
X105592662Y-51805020D01*
X105609477Y-51816165D01*
X105609553Y-51816227D01*
X105624126Y-51830800D01*
X105624188Y-51830876D01*
X105635333Y-51847691D01*
X105635379Y-51847778D01*
X105635382Y-51847786D01*
X105635420Y-51847843D01*
X105642954Y-51866199D01*
X105648098Y-51891967D01*
X105655228Y-51915411D01*
X105666794Y-51937013D01*
X105682353Y-51955944D01*
X105701306Y-51971476D01*
X105722925Y-51983012D01*
X105746379Y-51990108D01*
X105770678Y-51992493D01*
X106201476Y-51992493D01*
X106212350Y-51993046D01*
X106234153Y-51997399D01*
X106252510Y-52004933D01*
X106252567Y-52004971D01*
X106252575Y-52004974D01*
X106252662Y-52005020D01*
X106269477Y-52016165D01*
X106269553Y-52016227D01*
X106284126Y-52030800D01*
X106284188Y-52030876D01*
X106295333Y-52047691D01*
X106295379Y-52047778D01*
X106295382Y-52047786D01*
X106295420Y-52047843D01*
X106302954Y-52066200D01*
X106307307Y-52088003D01*
X106307860Y-52098877D01*
X106307860Y-52492501D01*
X106307307Y-52503375D01*
X106302954Y-52525178D01*
X106295420Y-52543536D01*
X106295381Y-52543594D01*
X106295379Y-52543600D01*
X106295333Y-52543687D01*
X106290002Y-52551731D01*
X106278584Y-52573283D01*
X106271558Y-52596758D01*
X106269247Y-52621153D01*
X106271739Y-52645530D01*
X106278939Y-52668952D01*
X106289999Y-52689644D01*
X106295333Y-52697691D01*
X106295379Y-52697778D01*
X106295381Y-52697784D01*
X106295420Y-52697842D01*
X106302954Y-52716200D01*
X106307307Y-52738003D01*
X106307860Y-52748877D01*
X106307860Y-53142501D01*
X106307307Y-53153375D01*
X106302954Y-53175178D01*
X106295420Y-53193536D01*
X106295381Y-53193594D01*
X106295379Y-53193600D01*
X106295333Y-53193687D01*
X106290002Y-53201731D01*
X106278584Y-53223283D01*
X106271558Y-53246758D01*
X106269247Y-53271153D01*
X106271739Y-53295530D01*
X106278939Y-53318952D01*
X106289999Y-53339644D01*
X106295333Y-53347691D01*
X106295379Y-53347778D01*
X106295381Y-53347784D01*
X106295420Y-53347842D01*
X106302954Y-53366200D01*
X106307307Y-53388003D01*
X106307860Y-53398877D01*
X106307860Y-53792501D01*
X106307307Y-53803375D01*
X106302954Y-53825178D01*
X106295420Y-53843536D01*
X106295381Y-53843594D01*
X106295379Y-53843600D01*
X106295333Y-53843687D01*
X106290002Y-53851731D01*
X106278584Y-53873283D01*
X106271558Y-53896758D01*
X106269247Y-53921153D01*
X106271739Y-53945530D01*
X106278939Y-53968952D01*
X106289999Y-53989644D01*
X106295333Y-53997691D01*
X106295379Y-53997778D01*
X106295381Y-53997784D01*
X106295420Y-53997842D01*
X106302954Y-54016200D01*
X106307307Y-54038003D01*
X106307860Y-54048877D01*
X106307860Y-54442501D01*
X106307307Y-54453375D01*
X106302954Y-54475178D01*
X106295420Y-54493535D01*
X106295382Y-54493592D01*
X106295379Y-54493600D01*
X106295333Y-54493687D01*
X106284188Y-54510502D01*
X106284126Y-54510578D01*
X106269553Y-54525151D01*
X106269477Y-54525213D01*
X106252662Y-54536358D01*
X106252575Y-54536404D01*
X106252567Y-54536407D01*
X106252510Y-54536445D01*
X106234153Y-54543979D01*
X106212350Y-54548332D01*
X106201476Y-54548885D01*
X105770678Y-54548885D01*
X105746292Y-54551287D01*
X105722843Y-54558400D01*
X105701232Y-54569951D01*
X105682290Y-54585496D01*
X105666745Y-54604438D01*
X105655194Y-54626049D01*
X105648098Y-54649411D01*
X105642954Y-54675179D01*
X105635420Y-54693535D01*
X105635382Y-54693592D01*
X105635379Y-54693600D01*
X105635333Y-54693687D01*
X105624188Y-54710502D01*
X105624126Y-54710578D01*
X105609553Y-54725151D01*
X105609477Y-54725213D01*
X105592662Y-54736358D01*
X105592575Y-54736404D01*
X105592567Y-54736407D01*
X105592510Y-54736445D01*
X105574153Y-54743979D01*
X105552350Y-54748332D01*
X105541476Y-54748885D01*
X104077852Y-54748885D01*
X104066978Y-54748332D01*
X104045175Y-54743979D01*
X104026818Y-54736445D01*
X104026761Y-54736407D01*
X104026753Y-54736404D01*
X104026666Y-54736358D01*
X104009851Y-54725213D01*
X104009775Y-54725151D01*
X103995202Y-54710578D01*
X103995140Y-54710502D01*
X103983995Y-54693687D01*
X103983949Y-54693600D01*
X103983946Y-54693592D01*
X103983908Y-54693535D01*
X103976374Y-54675178D01*
X103972021Y-54653375D01*
X103971468Y-54642501D01*
X103971468Y-51898877D01*
X103972021Y-51888003D01*
X103976374Y-51866200D01*
X103983908Y-51847843D01*
X103983946Y-51847786D01*
X103983949Y-51847778D01*
X103983995Y-51847691D01*
X103995140Y-51830876D01*
X103995202Y-51830800D01*
X104009775Y-51816227D01*
X104009851Y-51816165D01*
X104026666Y-51805020D01*
X104026753Y-51804974D01*
X104026761Y-51804971D01*
X104026818Y-51804933D01*
X104045175Y-51797399D01*
X104066978Y-51793046D01*
X104077852Y-51792493D01*
X105541476Y-51792493D01*
X105552350Y-51793046D01*
X105552350Y-51793046D01*
G37*
G36*
X103412350Y-51993046D02*
G01*
X103434153Y-51997399D01*
X103452510Y-52004933D01*
X103452567Y-52004971D01*
X103452575Y-52004974D01*
X103452662Y-52005020D01*
X103469477Y-52016165D01*
X103469553Y-52016227D01*
X103484126Y-52030800D01*
X103484188Y-52030876D01*
X103495333Y-52047691D01*
X103495379Y-52047778D01*
X103495382Y-52047786D01*
X103495420Y-52047843D01*
X103502954Y-52066200D01*
X103507307Y-52088003D01*
X103507860Y-52098877D01*
X103507860Y-52492501D01*
X103507307Y-52503375D01*
X103502954Y-52525178D01*
X103495420Y-52543536D01*
X103495381Y-52543594D01*
X103495379Y-52543600D01*
X103495333Y-52543687D01*
X103490002Y-52551731D01*
X103478584Y-52573283D01*
X103471558Y-52596758D01*
X103469247Y-52621153D01*
X103471739Y-52645530D01*
X103478939Y-52668952D01*
X103489999Y-52689644D01*
X103495333Y-52697691D01*
X103495379Y-52697778D01*
X103495381Y-52697784D01*
X103495420Y-52697842D01*
X103502954Y-52716200D01*
X103507307Y-52738003D01*
X103507860Y-52748877D01*
X103507860Y-53142501D01*
X103507307Y-53153375D01*
X103502954Y-53175178D01*
X103495420Y-53193536D01*
X103495381Y-53193594D01*
X103495379Y-53193600D01*
X103495333Y-53193687D01*
X103490002Y-53201731D01*
X103478584Y-53223283D01*
X103471558Y-53246758D01*
X103469247Y-53271153D01*
X103471739Y-53295530D01*
X103478939Y-53318952D01*
X103489999Y-53339644D01*
X103495333Y-53347691D01*
X103495379Y-53347778D01*
X103495381Y-53347784D01*
X103495420Y-53347842D01*
X103502954Y-53366200D01*
X103507307Y-53388003D01*
X103507860Y-53398877D01*
X103507860Y-53792501D01*
X103507307Y-53803375D01*
X103502954Y-53825178D01*
X103495420Y-53843536D01*
X103495381Y-53843594D01*
X103495379Y-53843600D01*
X103495333Y-53843687D01*
X103490002Y-53851731D01*
X103478584Y-53873283D01*
X103471558Y-53896758D01*
X103469247Y-53921153D01*
X103471739Y-53945530D01*
X103478939Y-53968952D01*
X103489999Y-53989644D01*
X103495333Y-53997691D01*
X103495379Y-53997778D01*
X103495381Y-53997784D01*
X103495420Y-53997842D01*
X103502954Y-54016200D01*
X103507307Y-54038003D01*
X103507860Y-54048877D01*
X103507860Y-54442501D01*
X103507307Y-54453375D01*
X103502954Y-54475178D01*
X103495420Y-54493535D01*
X103495382Y-54493592D01*
X103495379Y-54493600D01*
X103495333Y-54493687D01*
X103484188Y-54510502D01*
X103484126Y-54510578D01*
X103469553Y-54525151D01*
X103469477Y-54525213D01*
X103452662Y-54536358D01*
X103452575Y-54536404D01*
X103452567Y-54536407D01*
X103452510Y-54536445D01*
X103434153Y-54543979D01*
X103412350Y-54548332D01*
X103401476Y-54548885D01*
X102857852Y-54548885D01*
X102846978Y-54548332D01*
X102825175Y-54543979D01*
X102806818Y-54536445D01*
X102806761Y-54536407D01*
X102806753Y-54536404D01*
X102806666Y-54536358D01*
X102789851Y-54525213D01*
X102789775Y-54525151D01*
X102775202Y-54510578D01*
X102775140Y-54510502D01*
X102763995Y-54493687D01*
X102763949Y-54493600D01*
X102763946Y-54493592D01*
X102763908Y-54493535D01*
X102756374Y-54475178D01*
X102752021Y-54453375D01*
X102751468Y-54442501D01*
X102751468Y-54048877D01*
X102752021Y-54038003D01*
X102756374Y-54016200D01*
X102763908Y-53997842D01*
X102763947Y-53997784D01*
X102763949Y-53997778D01*
X102763995Y-53997691D01*
X102769326Y-53989647D01*
X102780744Y-53968095D01*
X102787770Y-53944620D01*
X102790081Y-53920225D01*
X102787589Y-53895848D01*
X102780389Y-53872426D01*
X102769329Y-53851734D01*
X102763995Y-53843687D01*
X102763949Y-53843600D01*
X102763947Y-53843594D01*
X102763908Y-53843536D01*
X102756374Y-53825178D01*
X102752021Y-53803375D01*
X102751468Y-53792501D01*
X102751468Y-53398877D01*
X102752021Y-53388003D01*
X102756374Y-53366200D01*
X102763908Y-53347842D01*
X102763947Y-53347784D01*
X102763949Y-53347778D01*
X102763995Y-53347691D01*
X102769326Y-53339647D01*
X102780744Y-53318095D01*
X102787770Y-53294620D01*
X102790081Y-53270225D01*
X102787589Y-53245848D01*
X102780389Y-53222426D01*
X102769329Y-53201734D01*
X102763995Y-53193687D01*
X102763949Y-53193600D01*
X102763947Y-53193594D01*
X102763908Y-53193536D01*
X102756374Y-53175178D01*
X102752021Y-53153375D01*
X102751468Y-53142501D01*
X102751468Y-52748877D01*
X102752021Y-52738003D01*
X102756374Y-52716200D01*
X102763908Y-52697842D01*
X102763947Y-52697784D01*
X102763949Y-52697778D01*
X102763995Y-52697691D01*
X102769326Y-52689647D01*
X102780744Y-52668095D01*
X102787770Y-52644620D01*
X102790081Y-52620225D01*
X102787589Y-52595848D01*
X102780389Y-52572426D01*
X102769329Y-52551734D01*
X102763995Y-52543687D01*
X102763949Y-52543600D01*
X102763947Y-52543594D01*
X102763908Y-52543536D01*
X102756374Y-52525178D01*
X102752021Y-52503375D01*
X102751468Y-52492501D01*
X102751468Y-52098877D01*
X102752021Y-52088003D01*
X102756374Y-52066200D01*
X102763908Y-52047843D01*
X102763946Y-52047786D01*
X102763949Y-52047778D01*
X102763995Y-52047691D01*
X102775140Y-52030876D01*
X102775202Y-52030800D01*
X102789775Y-52016227D01*
X102789851Y-52016165D01*
X102806666Y-52005020D01*
X102806753Y-52004974D01*
X102806761Y-52004971D01*
X102806818Y-52004933D01*
X102825175Y-51997399D01*
X102846978Y-51993046D01*
X102857852Y-51992493D01*
X103401476Y-51992493D01*
X103412350Y-51993046D01*
X103412350Y-51993046D01*
G37*
G36*
X93996460Y-54198880D02*
G01*
X92993260Y-54198880D01*
X92993260Y-53445680D01*
X93996460Y-53445680D01*
X93996460Y-54198880D01*
X93996460Y-54198880D01*
G37*
G36*
X95417540Y-53912300D02*
G01*
X94464340Y-53912300D01*
X94464340Y-52909100D01*
X95417540Y-52909100D01*
X95417540Y-53912300D01*
X95417540Y-53912300D01*
G37*
G36*
X96817540Y-53902300D02*
G01*
X95864340Y-53902300D01*
X95864340Y-52899100D01*
X96817540Y-52899100D01*
X96817540Y-53902300D01*
X96817540Y-53902300D01*
G37*
G36*
X99567540Y-53902300D02*
G01*
X98614340Y-53902300D01*
X98614340Y-52899100D01*
X99567540Y-52899100D01*
X99567540Y-53902300D01*
X99567540Y-53902300D01*
G37*
G36*
X98187540Y-53902300D02*
G01*
X97234340Y-53902300D01*
X97234340Y-52899100D01*
X98187540Y-52899100D01*
X98187540Y-53902300D01*
X98187540Y-53902300D01*
G37*
G36*
X102296380Y-53617940D02*
G01*
X101193180Y-53617940D01*
X101193180Y-52914740D01*
X102296380Y-52914740D01*
X102296380Y-53617940D01*
X102296380Y-53617940D01*
G37*
M02*
