G04 #@! TF.GenerationSoftware,KiCad,Pcbnew,5.1.4*
G04 #@! TF.CreationDate,2019-10-17T14:18:33+11:00*
G04 #@! TF.ProjectId,fabulouspide,66616275-6c6f-4757-9370-6964652e6b69,rev?*
G04 #@! TF.SameCoordinates,Original*
G04 #@! TF.FileFunction,Paste,Top*
G04 #@! TF.FilePolarity,Positive*
%FSLAX46Y46*%
G04 Gerber Fmt 4.6, Leading zero omitted, Abs format (unit mm)*
G04 Created by KiCad (PCBNEW 5.1.4) date 2019-10-17 14:18:33*
%MOMM*%
%LPD*%
G04 APERTURE LIST*
%ADD10C,0.300000*%
%ADD11C,0.100000*%
%ADD12C,0.200000*%
%ADD13C,1.524000*%
%ADD14R,0.850000X0.300000*%
%ADD15R,0.300000X0.850000*%
%ADD16R,0.780000X0.780000*%
%ADD17R,0.700000X0.300000*%
%ADD18C,1.400000*%
%ADD19C,1.360000*%
%ADD20R,0.800000X0.550000*%
%ADD21R,0.550000X0.800000*%
%ADD22R,0.900000X0.500000*%
%ADD23R,0.500000X0.900000*%
%ADD24R,0.750000X0.800000*%
G04 APERTURE END LIST*
D10*
X103108760Y-52296060D03*
D11*
G36*
X103405154Y-52495787D02*
G01*
X103405126Y-52495880D01*
X103405080Y-52495967D01*
X103405018Y-52496043D01*
X103404942Y-52496105D01*
X103404855Y-52496151D01*
X103404762Y-52496179D01*
X103404664Y-52496189D01*
X102854664Y-52496189D01*
X102854566Y-52496179D01*
X102854473Y-52496151D01*
X102854386Y-52496105D01*
X102854310Y-52496043D01*
X102854248Y-52495967D01*
X102854202Y-52495880D01*
X102854174Y-52495787D01*
X102854164Y-52495689D01*
X102854164Y-52095689D01*
X102854174Y-52095591D01*
X102854202Y-52095498D01*
X102854248Y-52095411D01*
X102854310Y-52095335D01*
X102854386Y-52095273D01*
X102854473Y-52095227D01*
X102854566Y-52095199D01*
X102854664Y-52095189D01*
X103404664Y-52095189D01*
X103404762Y-52095199D01*
X103404855Y-52095227D01*
X103404942Y-52095273D01*
X103405018Y-52095335D01*
X103405080Y-52095411D01*
X103405126Y-52095498D01*
X103405154Y-52095591D01*
X103405164Y-52095689D01*
X103405164Y-52495689D01*
X103405154Y-52495787D01*
X103405154Y-52495787D01*
G37*
D10*
X103108760Y-52938680D03*
D11*
G36*
X103405154Y-53145787D02*
G01*
X103405126Y-53145880D01*
X103405080Y-53145967D01*
X103405018Y-53146043D01*
X103404942Y-53146105D01*
X103404855Y-53146151D01*
X103404762Y-53146179D01*
X103404664Y-53146189D01*
X102854664Y-53146189D01*
X102854566Y-53146179D01*
X102854473Y-53146151D01*
X102854386Y-53146105D01*
X102854310Y-53146043D01*
X102854248Y-53145967D01*
X102854202Y-53145880D01*
X102854174Y-53145787D01*
X102854164Y-53145689D01*
X102854164Y-52745689D01*
X102854174Y-52745591D01*
X102854202Y-52745498D01*
X102854248Y-52745411D01*
X102854310Y-52745335D01*
X102854386Y-52745273D01*
X102854473Y-52745227D01*
X102854566Y-52745199D01*
X102854664Y-52745189D01*
X103404664Y-52745189D01*
X103404762Y-52745199D01*
X103404855Y-52745227D01*
X103404942Y-52745273D01*
X103405018Y-52745335D01*
X103405080Y-52745411D01*
X103405126Y-52745498D01*
X103405154Y-52745591D01*
X103405164Y-52745689D01*
X103405164Y-53145689D01*
X103405154Y-53145787D01*
X103405154Y-53145787D01*
G37*
D10*
X103116380Y-53594000D03*
D11*
G36*
X103405154Y-53795787D02*
G01*
X103405126Y-53795880D01*
X103405080Y-53795967D01*
X103405018Y-53796043D01*
X103404942Y-53796105D01*
X103404855Y-53796151D01*
X103404762Y-53796179D01*
X103404664Y-53796189D01*
X102854664Y-53796189D01*
X102854566Y-53796179D01*
X102854473Y-53796151D01*
X102854386Y-53796105D01*
X102854310Y-53796043D01*
X102854248Y-53795967D01*
X102854202Y-53795880D01*
X102854174Y-53795787D01*
X102854164Y-53795689D01*
X102854164Y-53395689D01*
X102854174Y-53395591D01*
X102854202Y-53395498D01*
X102854248Y-53395411D01*
X102854310Y-53395335D01*
X102854386Y-53395273D01*
X102854473Y-53395227D01*
X102854566Y-53395199D01*
X102854664Y-53395189D01*
X103404664Y-53395189D01*
X103404762Y-53395199D01*
X103404855Y-53395227D01*
X103404942Y-53395273D01*
X103405018Y-53395335D01*
X103405080Y-53395411D01*
X103405126Y-53395498D01*
X103405154Y-53395591D01*
X103405164Y-53395689D01*
X103405164Y-53795689D01*
X103405154Y-53795787D01*
X103405154Y-53795787D01*
G37*
D12*
X103108760Y-54244240D03*
D11*
G36*
X103405154Y-54445787D02*
G01*
X103405126Y-54445880D01*
X103405080Y-54445967D01*
X103405018Y-54446043D01*
X103404942Y-54446105D01*
X103404855Y-54446151D01*
X103404762Y-54446179D01*
X103404664Y-54446189D01*
X102854664Y-54446189D01*
X102854566Y-54446179D01*
X102854473Y-54446151D01*
X102854386Y-54446105D01*
X102854310Y-54446043D01*
X102854248Y-54445967D01*
X102854202Y-54445880D01*
X102854174Y-54445787D01*
X102854164Y-54445689D01*
X102854164Y-54045689D01*
X102854174Y-54045591D01*
X102854202Y-54045498D01*
X102854248Y-54045411D01*
X102854310Y-54045335D01*
X102854386Y-54045273D01*
X102854473Y-54045227D01*
X102854566Y-54045199D01*
X102854664Y-54045189D01*
X103404664Y-54045189D01*
X103404762Y-54045199D01*
X103404855Y-54045227D01*
X103404942Y-54045273D01*
X103405018Y-54045335D01*
X103405080Y-54045411D01*
X103405126Y-54045498D01*
X103405154Y-54045591D01*
X103405164Y-54045689D01*
X103405164Y-54445689D01*
X103405154Y-54445787D01*
X103405154Y-54445787D01*
G37*
D13*
X104922320Y-53306980D03*
D11*
G36*
X106205154Y-52495787D02*
G01*
X106205126Y-52495880D01*
X106205080Y-52495967D01*
X106205018Y-52496043D01*
X106204942Y-52496105D01*
X106204855Y-52496151D01*
X106204762Y-52496179D01*
X106204664Y-52496189D01*
X105795164Y-52496189D01*
X105795164Y-52745189D01*
X106204664Y-52745189D01*
X106204762Y-52745199D01*
X106204855Y-52745227D01*
X106204942Y-52745273D01*
X106205018Y-52745335D01*
X106205080Y-52745411D01*
X106205126Y-52745498D01*
X106205154Y-52745591D01*
X106205164Y-52745689D01*
X106205164Y-53145689D01*
X106205154Y-53145787D01*
X106205126Y-53145880D01*
X106205080Y-53145967D01*
X106205018Y-53146043D01*
X106204942Y-53146105D01*
X106204855Y-53146151D01*
X106204762Y-53146179D01*
X106204664Y-53146189D01*
X105795164Y-53146189D01*
X105795164Y-53395189D01*
X106204664Y-53395189D01*
X106204762Y-53395199D01*
X106204855Y-53395227D01*
X106204942Y-53395273D01*
X106205018Y-53395335D01*
X106205080Y-53395411D01*
X106205126Y-53395498D01*
X106205154Y-53395591D01*
X106205164Y-53395689D01*
X106205164Y-53795689D01*
X106205154Y-53795787D01*
X106205126Y-53795880D01*
X106205080Y-53795967D01*
X106205018Y-53796043D01*
X106204942Y-53796105D01*
X106204855Y-53796151D01*
X106204762Y-53796179D01*
X106204664Y-53796189D01*
X105795164Y-53796189D01*
X105795164Y-54045189D01*
X106204664Y-54045189D01*
X106204762Y-54045199D01*
X106204855Y-54045227D01*
X106204942Y-54045273D01*
X106205018Y-54045335D01*
X106205080Y-54045411D01*
X106205126Y-54045498D01*
X106205154Y-54045591D01*
X106205164Y-54045689D01*
X106205164Y-54445689D01*
X106205154Y-54445787D01*
X106205126Y-54445880D01*
X106205080Y-54445967D01*
X106205018Y-54446043D01*
X106204942Y-54446105D01*
X106204855Y-54446151D01*
X106204762Y-54446179D01*
X106204664Y-54446189D01*
X105545164Y-54446189D01*
X105545164Y-54645689D01*
X105545154Y-54645787D01*
X105545126Y-54645880D01*
X105545080Y-54645967D01*
X105545018Y-54646043D01*
X105544942Y-54646105D01*
X105544855Y-54646151D01*
X105544762Y-54646179D01*
X105544664Y-54646189D01*
X104074664Y-54646189D01*
X104074566Y-54646179D01*
X104074473Y-54646151D01*
X104074386Y-54646105D01*
X104074310Y-54646043D01*
X104074248Y-54645967D01*
X104074202Y-54645880D01*
X104074174Y-54645787D01*
X104074164Y-54645689D01*
X104074164Y-51895689D01*
X104074174Y-51895591D01*
X104074202Y-51895498D01*
X104074248Y-51895411D01*
X104074310Y-51895335D01*
X104074386Y-51895273D01*
X104074473Y-51895227D01*
X104074566Y-51895199D01*
X104074664Y-51895189D01*
X105544664Y-51895189D01*
X105544762Y-51895199D01*
X105544855Y-51895227D01*
X105544942Y-51895273D01*
X105545018Y-51895335D01*
X105545080Y-51895411D01*
X105545126Y-51895498D01*
X105545154Y-51895591D01*
X105545164Y-51895689D01*
X105545164Y-52095189D01*
X106204664Y-52095189D01*
X106204762Y-52095199D01*
X106204855Y-52095227D01*
X106204942Y-52095273D01*
X106205018Y-52095335D01*
X106205080Y-52095411D01*
X106205126Y-52095498D01*
X106205154Y-52095591D01*
X106205164Y-52095689D01*
X106205164Y-52495689D01*
X106205154Y-52495787D01*
X106205154Y-52495787D01*
G37*
D14*
X96330940Y-57610700D03*
X96330940Y-58110700D03*
X96330940Y-58610700D03*
X96330940Y-59110700D03*
X96330940Y-59610700D03*
X96330940Y-60110700D03*
D15*
X97030940Y-60810700D03*
X97530940Y-60810700D03*
X98030940Y-60810700D03*
X98530940Y-60810700D03*
X99030940Y-60810700D03*
X99530940Y-60810700D03*
D14*
X100230940Y-60110700D03*
X100230940Y-59610700D03*
X100230940Y-59110700D03*
X100230940Y-58610700D03*
X100230940Y-58110700D03*
X100230940Y-57610700D03*
D15*
X99530940Y-56910700D03*
X99030940Y-56910700D03*
X98530940Y-56910700D03*
X98030940Y-56910700D03*
X97530940Y-56910700D03*
X97030940Y-56910700D03*
D16*
X98930940Y-59510700D03*
X98930940Y-58210700D03*
X97630940Y-59510700D03*
X97630940Y-58210700D03*
D17*
X91270000Y-58900000D03*
X91270000Y-59400000D03*
X91270000Y-59900000D03*
X91270000Y-60400000D03*
X91270000Y-60900000D03*
X91270000Y-61400000D03*
X91270000Y-61900000D03*
X91270000Y-62400000D03*
X91270000Y-62900000D03*
X91270000Y-63400000D03*
X91270000Y-63900000D03*
D18*
X85110000Y-57410000D03*
X85110000Y-66390000D03*
D19*
X91060000Y-66030000D03*
D17*
X91270000Y-64400000D03*
X92970000Y-64150000D03*
X92970000Y-62650000D03*
X92970000Y-63150000D03*
X92970000Y-63650000D03*
X92970000Y-64650000D03*
X92970000Y-62150000D03*
X92970000Y-61650000D03*
X92970000Y-61150000D03*
X92970000Y-60650000D03*
X92970000Y-60150000D03*
X92970000Y-59650000D03*
X92970000Y-59150000D03*
D19*
X91060000Y-57770000D03*
D20*
X94701360Y-60779660D03*
X94701360Y-59529660D03*
X94701360Y-57363040D03*
X94701360Y-58613040D03*
D21*
X107223880Y-55984140D03*
X105973880Y-55984140D03*
D20*
X93494860Y-53822280D03*
X93494860Y-55072280D03*
D22*
X99113340Y-67236340D03*
X99113340Y-65736340D03*
X103261160Y-55876060D03*
X103261160Y-57376060D03*
D23*
X103041580Y-58661300D03*
X101541580Y-58661300D03*
D22*
X101744780Y-53266340D03*
X101744780Y-54766340D03*
X94640400Y-67238880D03*
X94640400Y-65738880D03*
X96126300Y-67232660D03*
X96126300Y-65732660D03*
X97617280Y-67235200D03*
X97617280Y-65735200D03*
X100601780Y-67237040D03*
X100601780Y-65737040D03*
D23*
X96276160Y-62755780D03*
X97776160Y-62755780D03*
D22*
X102100380Y-67242120D03*
X102100380Y-65742120D03*
X105097580Y-67242120D03*
X105097580Y-65742120D03*
X103598980Y-67236340D03*
X103598980Y-65736340D03*
D23*
X102040820Y-62679580D03*
X100540820Y-62679580D03*
D22*
X101747320Y-55868440D03*
X101747320Y-57368440D03*
D24*
X104708960Y-55902860D03*
X104708960Y-57402860D03*
X94940940Y-53410700D03*
X94940940Y-54910700D03*
X97710940Y-53400700D03*
X97710940Y-54900700D03*
X99090940Y-53400700D03*
X99090940Y-54900700D03*
X96340940Y-53400700D03*
X96340940Y-54900700D03*
M02*
